<?xml version="1.0" encoding="UTF-8" standalone="no"?>
<svg
   xmlns:dc="http://purl.org/dc/elements/1.1/"
   xmlns:cc="http://creativecommons.org/ns#"
   xmlns:rdf="http://www.w3.org/1999/02/22-rdf-syntax-ns#"
   xmlns:svg="http://www.w3.org/2000/svg"
   xmlns="http://www.w3.org/2000/svg"
   id="svg71"
   xml:space="preserve"
   viewBox="0 0 1024 768"
   y="0px"
   x="0px"
   version="1.1"><metadata
     id="metadata75"><rdf:RDF><cc:Work
         rdf:about=""><dc:format>image/svg+xml</dc:format><dc:type
           rdf:resource="http://purl.org/dc/dcmitype/StillImage" /></cc:Work></rdf:RDF></metadata><defs
     id="defs65"><linearGradient
       y2="100%"
       x2="0"
       y1="0%"
       x1="0%"
       id="gradient1"><stop
         id="stop2"
         stop-color="#ffffff"
         offset="0%" /><stop
         id="stop4"
         stop-color="#b4b8b8"
         offset="16%" /><stop
         id="stop6"
         stop-color="#f3f3f3"
         offset="43%" /><stop
         id="stop8"
         stop-color="#bababa"
         offset="87%" /><stop
         id="stop10"
         stop-color="#ffffff"
         offset="100%" /></linearGradient><linearGradient
       y2="100%"
       x2="0%"
       y1="0%"
       x1="0%"
       id="gradient2"><stop
         id="stop13"
         stop-color="#535b5e"
         offset="0%" /><stop
         id="stop15"
         stop-color="#fefefe"
         offset="25%" /><stop
         id="stop17"
         stop-color="#636b6d"
         offset="50%" /><stop
         id="stop19"
         stop-color="#fdfdfd"
         offset="75%" /><stop
         id="stop21"
         stop-color="#535b5e"
         offset="100%" /></linearGradient><filter
       id="chrome"><!-- inner glow --><feOffset
         id="feOffset24"
         dy="20"
         dx="0"
         in="SourceGraphic"
         result="inner-glow" /><feFlood
         id="feFlood26"
         result="flood-white"
         flood-color="#ffffff" /><feComposite
         id="feComposite28"
         result="comp"
         in2="SourceAlpha"
         in="flood-white"
         operator="out" /><feOffset
         id="feOffset30"
         dy="4"
         dx="0"
         in="comp"
         result="comp" /><feMorphology
         id="feMorphology32"
         radius="2"
         operator="dilate"
         result="comp"
         in="comp" /><feGaussianBlur
         id="feGaussianBlur34"
         stdDeviation="2"
         result="comp"
         in="comp" /><feComposite
         id="feComposite36"
         result="comp"
         in2="SourceAlpha"
         in="comp"
         operator="in" /><feBlend
         id="feBlend38"
         mode="screen"
         in2="comp"
         in="SourceGraphic" /><!-- bevel --><feGaussianBlur
         id="feGaussianBlur40"
         result="bumpMap"
         in="SourceAlpha"
         stdDeviation="3" /><feMorphology
         id="feMorphology42"
         radius="4"
         operator="erode"
         result="bumpMap"
         in="bumpMap" /><feComponentTransfer
         id="feComponentTransfer46"
         result="bumpMap"
         in="bumpMap"><feFuncA
           id="feFuncA44"
           tableValues="0 .5 0 .5 0"
           type="table" /></feComponentTransfer><feDiffuseLighting
         id="feDiffuseLighting49"
         result="shading"
         diffuseConstant="7"
         surfaceScale="1"
         in="bumpMap"><fePointLight
           z="200"
           y="-300"
           x="0"
           id="light"><animate
             repeatCount="indefinite"
             keySplines=".73 .18 .24 .87;          .73 .18 .24 .87;"
             calcMode="spline"
             dur="5s"
             values="0;1024;0"
             attributeName="x" /></fePointLight></feDiffuseLighting><feBlend
         id="feBlend51"
         result="comp2"
         mode="multiply"
         in2="shading"
         in="flood-white" /><feBlend
         id="feBlend53"
         mode="screen"
         result="output"
         in2="comp"
         in="comp2" /><feBlend
         id="feBlend55"
         mode="multiply"
         result="output"
         in2="SourceGraphic"
         in="output" /><feGaussianBlur
         id="feGaussianBlur57"
         stdDeviation="1"
         result="output"
         in="output" /><feComposite
         id="feComposite59"
         result="output"
         in2="SourceAlpha"
         in="output"
         operator="in" /></filter><filter
       height="200%"
       width="200%"
       y="-50%"
       x="-50%"
       id="shadow"><feGaussianBlur
         id="feGaussianBlur62"
         stdDeviation="3"
         in="SourceGraphic" /></filter></defs><path
     id="path67"
     opacity="0.7"
     filter="url(#shadow)"
     stroke-width="2"
     stroke="#000000"
     fill="#000000"
     transform="translate(3 5)"
     d="m423.15 273.25c-7.63 0-11.72 3.47-12.27 10.41l-1.46 10.82c-0.97 7.91 2.5 11.86 10.4 11.86h15.4c7.22 0 11.31-3.47 12.28-10.4l1.46-10.83c0.83-7.9-2.78-11.86-10.82-11.86h-14.99zm-91.19 4.37c-23.87 0-42.46 0.7-55.77 2.08l-20.19 143.59h38.08l7.7-54.1h19.35c3.61 0 6.11 0.69 7.49 2.08 1.39 1.24 2.23 3.95 2.5 8.11l5 43.91h40.16l-6.24-43.7c-1.53-13.18-7.56-20.67-18.11-22.47l0.21-1.46c10.54-1.11 18.24-4.51 23.1-10.2s7.91-13.39 9.16-23.1c2.22-16.23-1.11-27.74-9.99-34.54-8.74-6.8-22.89-10.2-42.45-10.2zm148.63 14.36l-4.16 27.89-18.73 1.04-2.91 22.68h18.1l-7.7 52.44c-1.38 9.16 0.56 16.44 5.83 21.85 5.41 5.41 13.25 8.12 23.52 8.12 13.17 0 23.79-1.53 31.83-4.58l-1.87-25.18h-12.9c-3.61 0-5.9-0.49-6.87-1.46-0.97-1.11-1.18-3.33-0.62-6.66l6.24-44.53h26.64l3.33-23.72h-26.43l3.95-27.89h-37.25zm-149.26 14.15c6.24 0 10.34 1.11 12.28 3.33 2.08 2.22 2.7 6.38 1.87 12.49-1.11 7.49-3.12 12.48-6.03 14.98-2.92 2.5-7.91 3.75-14.99 3.75h-18.73l4.79-34.34 20.81-0.21zm385.89 10.82c-7.9 0-14.35 0.28-19.35 0.84-4.85 0.41-10.06 1.59-15.61 3.53-5.41 1.94-9.78 4.79-13.11 8.54-3.19 3.6-6.17 8.66-8.94 15.18-2.78 6.53-4.93 14.57-6.46 24.15-2.91 19.56-2.15 34.05 2.29 43.49 4.44 9.43 13.53 13.8 27.26 13.11 17.76-0.84 31.5-8.19 41.21-22.06v19.56h29.34l14.15-99.89c-4.99-1.52-12.9-2.98-23.72-4.37-10.82-1.38-19.84-2.08-27.06-2.08zm-311.34 2.92l-14.36 103.42h37.67l14.36-103.42h-37.67zm146.04 0l-3.33 25.38h49.32l-58.26 52.65h0.2l-3.32 25.39h96.14l3.32-25.39h-51.39l58.26-52.65h-0.21l3.13-25.38h-93.86zm163.43 22.89l12.28 0.2-5 35.17c-8.87 11.66-17.06 17.69-24.55 18.11-4.3 0.14-6.8-1.46-7.49-4.79-0.7-3.33-0.14-10.96 1.66-22.89 1.53-10.96 3.89-17.96 7.08-21.02 3.33-3.19 8.67-4.78 16.02-4.78zm-280.12 111.85c-1.02 1.11-2 2.41-2.94 3.87l3.96 2.86 1.36-1.92c0.43-0.6 0.9-1.21 1.4-1.83l-3.78-2.98zm228.47 0c-1.03 1.11-2.01 2.41-2.95 3.87l3.97 2.86 1.35-1.92c0.44-0.6 0.91-1.21 1.41-1.83l-3.78-2.98zm-86.92 1.28v7.84c-0.87-0.23-1.76-0.35-2.66-0.35-2.95 0-5.37 0.94-7.26 2.82-1.88 1.85-2.82 4.18-2.82 6.97 0 2.7 0.81 4.9 2.43 6.59 0.79 0.82 1.74 1.47 2.86 1.94 1.11 0.47 2.42 0.7 3.91 0.7s2.98-0.42 4.47-1.25c0.38 0.51 0.87 0.92 1.48 1.25l3.31-2.92c-0.28-0.2-0.51-0.41-0.7-0.64-0.18-0.22-0.34-0.57-0.5-1.05-0.14-0.48-0.21-1.51-0.21-3.07v-18.83h-4.31zm-200.8 1.06v25.19h4.44c-0.08-0.54-0.13-1.32-0.13-2.33v-1.88l3.35-3.56 5.5 8.03c0.74-0.18 1.62-0.26 2.65-0.26h2.79c-0.24-0.25-0.53-0.6-0.88-1.06l-1.16-1.64c-0.44-0.63-1.09-1.63-1.94-2.99l-3.97-5.41 6.94-7.31h-5.23l-8.05 8.65v-15.43h-4.31zm-55.5 1.62c-0.37 0.1-1.01 0.14-1.92 0.14-0.9 0-1.73-0.02-2.48-0.07v23.5h1.41c1.61 0 2.69 0.03 3.26 0.1v-14.95l5.77 9.48 5.76-10.31v15.78c0.57-0.07 1.65-0.1 3.26-0.1h1.41v-23.5c-0.75 0.05-1.65 0.07-2.71 0.07s-1.77-0.04-2.15-0.14l-5.69 10.06-5.92-10.06zm239.88 0c-2.63 0.1-5.29 0.14-7.98 0.14-0.96 0-1.85-0.01-2.67-0.03l-1.24-0.04c-0.38-0.01-0.74-0.03-1.05-0.05v23.55h13.19l0.18-4.42-0.07-0.02c-0.28 0.14-0.79 0.21-1.52 0.21h-7.18v-6.34h4.36c0.9 0 1.62 0.03 2.19 0.09l-0.06-4.35c-0.25 0.07-1.03 0.1-2.32 0.1h-4.17v-4.49h5.54c1.13 0 2 0.09 2.61 0.27l0.04-0.06c-0.03-0.09-0.04-0.23-0.04-0.42 0-1.73 0.06-3.1 0.19-4.14zm-141.41 0.14v5.02h-2.66c-0.01 0-0.01 0.1-0.01 0.3v2.71c0 0.36 0 0.7 0.01 1.04h2.66v8c0 2.32 0.54 4.03 1.61 5.12 0.51 0.53 1.14 0.91 1.86 1.15 0.74 0.23 1.42 0.35 2.05 0.35s1.16-0.03 1.58-0.09c1.56-0.19 2.63-0.57 3.21-1.14l-0.05-4.09h-0.15c-0.56 0.79-1.6 1.18-3.11 1.18-0.44 0-0.82-0.04-1.15-0.14-1.02-0.26-1.53-1.31-1.53-3.15v-7.19h4.84v-4.05h-4.84v-5.02h-4.32zm228.47 0v5.02h-2.66c-0.01 0-0.02 0.1-0.02 0.3v2.71c0 0.36 0.01 0.7 0.02 1.04h2.66v8c0 2.32 0.53 4.03 1.6 5.12 0.52 0.53 1.14 0.91 1.87 1.15 0.74 0.23 1.42 0.35 2.04 0.35 0.64 0 1.17-0.03 1.59-0.09 1.56-0.19 2.63-0.57 3.2-1.14l-0.05-4.09h-0.14c-0.56 0.79-1.6 1.18-3.12 1.18-0.43 0-0.81-0.04-1.14-0.14-1.02-0.26-1.53-1.31-1.53-3.15v-7.19h4.84v-4.05h-4.84v-5.02h-4.32zm-167.69 2.65c-0.2 0.22-0.65 0.58-1.37 1.07-0.71 0.48-1.84 1.04-3.36 1.69-1.17-0.49-2.41-0.74-3.74-0.74-2.52 0-4.58 0.74-6.16 2.22-1.51 1.41-2.26 3.16-2.26 5.25 0 1.86 0.67 3.43 1.99 4.68-1.13 0.91-1.71 2.01-1.71 3.31 0 0.78 0.09 1.47 0.27 2.08 0.19 0.6 0.55 1.12 1.09 1.57-1.98 1.09-2.94 2.86-2.87 5.3 0.05 2.1 0.96 3.79 2.75 5.06 1.78 1.26 4.13 1.9 7.04 1.9 2.89 0 5.07-0.57 6.54-1.69s2.2-2.72 2.2-4.81-0.58-3.71-1.74-4.85c-0.63-0.59-1.44-1.1-2.45-1.51-1-0.41-2.39-0.75-4.16-1.02-1.77-0.28-3.05-0.61-3.82-0.97-0.35-0.16-0.58-0.34-0.69-0.51-0.1-0.19-0.16-0.45-0.16-0.77 0-0.35 0.22-0.8 0.66-1.38 0.99 0.34 2.07 0.51 3.24 0.51 2.38 0 4.34-0.72 5.88-2.16 0.69-0.67 1.23-1.45 1.6-2.33 0.38-0.89 0.56-1.88 0.56-2.98 0-1.09-0.25-2.12-0.75-3.1 1.3-0.23 2.21-0.63 2.73-1.19-0.06-0.39-0.23-1.11-0.51-2.15l-0.32-1.27c-0.14-0.52-0.26-0.92-0.37-1.2l-0.11-0.01zm-129.39 2.02c-2.47 0-4.74 0.55-6.82 1.64l0.53 3.89 0.05 0.04c0.49-0.47 1.31-0.89 2.45-1.25 0.52-0.17 1.04-0.3 1.58-0.39 0.56-0.11 1.12-0.16 1.68-0.16 0.57 0 1.11 0.05 1.62 0.16 1.52 0.31 2.34 1.41 2.43 3.29-0.14-0.02-0.3-0.03-0.48-0.03-0.17-0.02-0.33-0.03-0.47-0.04l-0.71-0.02c-3.1 0-5.55 0.61-7.36 1.83-1.67 1.13-2.5 2.54-2.5 4.23 0 1.89 0.68 3.34 2.04 4.33 0.67 0.5 1.49 0.87 2.45 1.13 0.96 0.25 2.12 0.37 3.47 0.37s2.86-0.45 4.53-1.36c0.41 0.67 0.95 1.19 1.62 1.54l3.18-2.93c-0.96-0.49-1.44-1.42-1.44-2.78v-6.37c0-1.11-0.17-2.1-0.51-2.98-1.07-2.76-3.52-4.14-7.34-4.14zm20.62 0c-1.09 0-2.14 0.57-3.14 1.71v-1.36h-4.31v18.41h4.38c-0.04-0.31-0.07-0.97-0.07-1.98v-10.85c0.36-0.55 0.79-0.99 1.29-1.32 0.52-0.34 1.02-0.51 1.51-0.51 1.3 0 2.15 0.37 2.56 1.1l0.07-0.06 0.32-4.73c-0.64-0.27-1.51-0.41-2.61-0.41zm34.75 0c-2.96 0-5.35 0.93-7.19 2.8-0.85 0.88-1.52 1.91-1.99 3.08-0.47 1.18-0.7 2.45-0.7 3.82 0 2.73 0.98 4.97 2.94 6.71 1.95 1.74 4.42 2.61 7.4 2.61 0.54 0 1.1-0.03 1.69-0.11 1.99-0.23 3.44-0.65 4.33-1.26l0.19-2.75c0.04-0.52 0.07-1.02 0.09-1.51-0.17 0.15-0.44 0.31-0.79 0.49-1.34 0.67-2.94 1-4.81 1-1.78 0-3.23-0.34-4.35-1.04-1.11-0.7-1.82-1.68-2.13-2.94h6.2c3.6 0 5.99-0.16 7.17-0.49 0.14-0.34 0.21-0.98 0.21-1.9 0-2.42-0.75-4.43-2.24-6.03-1.51-1.65-3.52-2.48-6.02-2.48zm45.76 0c-1.76 0-3.42 0.64-4.97 1.92v-1.57h-4.28v18.41h4.42c-0.09-0.47-0.14-1.22-0.14-2.26v-10.05c1.04-1.6 2.34-2.4 3.89-2.4 2.09 0 3.14 1.72 3.14 5.16v9.6c0.63-0.04 1.14-0.05 1.51-0.05h1.24c0.43 0 1.12 0.04 2.07 0.12l0.04-0.07c-0.07-0.09-0.16-0.2-0.27-0.32-0.09-0.11-0.17-0.37-0.23-0.77-0.05-0.4-0.08-1.59-0.08-3.58v-7.01c0-2.13-0.58-3.86-1.73-5.16-1.15-1.31-2.69-1.97-4.61-1.97zm52.09 0c-2.46 0-4.73 0.55-6.81 1.64l0.53 3.89 0.05 0.04c0.49-0.47 1.31-0.89 2.45-1.25 0.51-0.17 1.04-0.3 1.58-0.39 0.55-0.11 1.11-0.16 1.68-0.16s1.11 0.05 1.62 0.16c1.52 0.31 2.33 1.41 2.43 3.29-0.14-0.02-0.3-0.03-0.48-0.03-0.17-0.02-0.33-0.03-0.48-0.04l-0.7-0.02c-3.1 0-5.55 0.61-7.36 1.83-1.67 1.13-2.5 2.54-2.5 4.23 0 1.89 0.68 3.34 2.04 4.33 0.67 0.5 1.49 0.87 2.45 1.13 0.96 0.25 2.12 0.37 3.47 0.37s2.86-0.45 4.52-1.36c0.42 0.67 0.96 1.19 1.63 1.54l3.18-2.93c-0.96-0.49-1.44-1.42-1.44-2.78v-6.37c0-1.11-0.17-2.1-0.51-2.98-1.07-2.76-3.52-4.14-7.35-4.14zm20.33 0c-2.47 0-4.4 0.52-5.8 1.55-1.41 1.04-2.11 2.48-2.11 4.31 0 1.51 0.5 2.72 1.5 3.65 0.54 0.49 1.24 0.92 2.09 1.27 0.86 0.35 1.96 0.62 3.3 0.81 1.35 0.17 2.37 0.44 3.06 0.79 0.39 0.21 0.58 0.54 0.58 0.97 0 1.35-1.01 2.03-3.05 2.03-1.51 0-2.97-0.25-4.36-0.73-0.65-0.22-1.22-0.48-1.71-0.77-0.49-0.3-0.83-0.54-1.01-0.74-0.17-0.21-0.26-0.31-0.28-0.28-0.01 0.01-0.03 0.12-0.05 0.33-0.02 0.2-0.08 0.72-0.17 1.55l-0.16 1.27c-0.05 0.44-0.09 0.85-0.11 1.2 1.68 1.21 4.17 1.81 7.49 1.81 2.47 0 4.41-0.54 5.79-1.64 1.33-1.03 1.99-2.37 1.99-4.03 0-1.51-0.42-2.73-1.27-3.65-0.45-0.5-1.06-0.93-1.81-1.28-0.75-0.37-1.86-0.65-3.31-0.86-1.45-0.22-2.59-0.54-3.42-0.99-0.45-0.24-0.67-0.58-0.67-1.02 0-1.29 1.07-1.94 3.21-1.94 0.5 0 0.99 0.05 1.48 0.14 1.56 0.27 2.71 0.84 3.45 1.69 0.16 0.25 0.26 0.37 0.28 0.37 0.01 0 0.03-0.05 0.05-0.14l0.41-1.04c0.13-0.34 0.33-0.9 0.6-1.67 0.09-0.28 0.18-0.58 0.26-0.88-1.73-1.39-3.81-2.08-6.25-2.08zm92.09 0c-3.06 0-5.51 0.96-7.34 2.87-1.73 1.82-2.59 4.14-2.59 6.97 0 2.79 0.87 5.02 2.62 6.7 1.73 1.65 3.96 2.48 6.68 2.48 2.81 0 4.87-0.66 6.18-1.97l-0.4-4.3-0.13-0.05c-0.34 0.62-0.98 1.17-1.93 1.64-0.45 0.22-0.95 0.39-1.5 0.52-0.54 0.13-1.18 0.2-1.92 0.2-0.73 0-1.42-0.14-2.08-0.42-1.9-0.85-2.85-2.65-2.85-5.39 0-1.55 0.41-2.8 1.23-3.74 0.41-0.46 0.9-0.81 1.48-1.07s1.37-0.39 2.38-0.39 2.02 0.18 3.03 0.53c0.62 0.21 1.21 0.66 1.78 1.34l0.12 0.01 0.7-4.5c-1.46-0.95-3.28-1.43-5.46-1.43zm16.93 0c-2.47 0-4.74 0.55-6.82 1.64l0.53 3.89 0.05 0.04c0.5-0.47 1.31-0.89 2.45-1.25 0.52-0.17 1.05-0.3 1.59-0.39 0.55-0.11 1.11-0.16 1.67-0.16 0.58 0 1.12 0.05 1.62 0.16 1.53 0.31 2.34 1.41 2.43 3.29-0.14-0.02-0.3-0.03-0.47-0.03-0.18-0.02-0.34-0.03-0.48-0.04l-0.7-0.02c-3.1 0-5.56 0.61-7.37 1.83-1.66 1.13-2.5 2.54-2.5 4.23 0 1.89 0.68 3.34 2.05 4.33 0.66 0.5 1.48 0.87 2.44 1.13 0.97 0.25 2.12 0.37 3.47 0.37s2.86-0.45 4.53-1.36c0.41 0.67 0.95 1.19 1.62 1.54l3.19-2.93c-0.96-0.49-1.45-1.42-1.45-2.78v-6.37c0-1.11-0.17-2.1-0.51-2.98-1.06-2.76-3.51-4.14-7.34-4.14zm45.63 0c-2.86 0-5.19 0.95-6.99 2.85-0.82 0.88-1.46 1.92-1.9 3.1s-0.65 2.41-0.65 3.7c0 2.68 0.77 4.87 2.3 6.57 1.7 1.87 4.03 2.8 7.01 2.8 2.89 0 5.21-0.95 6.96-2.85 1.66-1.8 2.48-4.06 2.48-6.8s-0.8-4.96-2.41-6.68c-1.68-1.79-3.94-2.69-6.8-2.69zm22.46 0c-1.76 0-3.42 0.64-4.97 1.92v-1.57h-4.28v18.41h4.42c-0.09-0.47-0.14-1.22-0.14-2.26v-10.05c1.05-1.6 2.34-2.4 3.89-2.4 2.09 0 3.14 1.72 3.14 5.16v9.6c0.63-0.04 1.14-0.05 1.51-0.05h1.24c0.43 0 1.12 0.04 2.07 0.12l0.04-0.07c-0.07-0.09-0.16-0.2-0.26-0.32-0.1-0.11-0.17-0.37-0.23-0.77s-0.09-1.59-0.09-3.58v-7.01c0-2.13-0.58-3.86-1.73-5.16-1.15-1.31-2.69-1.97-4.61-1.97zm-115.13 0.28c0.04 0.1 0.11 0.32 0.21 0.67 0.1 0.34 0.16 1.68 0.16 4.03v7c0 2.17 0.51 3.88 1.55 5.12 1.08 1.28 2.57 1.92 4.47 1.92 1.77 0 3.41-0.62 4.91-1.86v1.6h4.51c-0.09-0.47-0.14-1.22-0.14-2.26v-16.15h-4.37v13.02c-0.84 1.01-1.96 1.51-3.34 1.51-0.47 0-0.91-0.06-1.31-0.17-1.31-0.39-1.97-1.79-1.97-4.21v-10.2c-0.63 0.03-1.14 0.05-1.53 0.05h-1.46c-0.59 0-1.15-0.02-1.69-0.07zm-153.35 0.07v18.41h4.47c-0.05-0.31-0.07-0.97-0.07-1.98v-16.43h-4.4zm228.46 0v18.41h4.48c-0.05-0.31-0.07-0.97-0.07-1.98v-16.43h-4.41zm-255.82 3.35c2.27 0 3.64 1.26 4.13 3.79-0.31 0.02-0.66 0.04-1.04 0.05l-1.45 0.05c-0.57 0.01-1.16 0.02-1.76 0.02h-1c-0.4 0-0.82-0.01-1.25-0.02h-1.31c-0.41-0.01-0.75-0.02-1.04-0.03 0.16-0.57 0.37-1.08 0.66-1.55 0.92-1.54 2.28-2.31 4.06-2.31zm65.91 0.07c1.17 0 2.09 0.3 2.76 0.91 0.67 0.62 1.01 1.42 1.01 2.42 0 0.98-0.37 1.83-1.11 2.53-0.71 0.65-1.54 0.97-2.5 0.97-1.27 0-2.3-0.35-3.09-1.05-0.35-0.32-0.62-0.68-0.8-1.08s-0.27-0.81-0.27-1.25c0-0.43 0.08-0.86 0.25-1.29 0.56-1.44 1.81-2.16 3.75-2.16zm207.19 0.19c1.58 0 2.81 0.54 3.72 1.62 0.84 1.01 1.27 2.34 1.27 3.98 0 1.62-0.42 2.94-1.24 3.95-0.84 1.04-2 1.57-3.47 1.57-1.58 0-2.86-0.54-3.84-1.61-0.45-0.49-0.81-1.08-1.05-1.78-0.25-0.69-0.37-1.4-0.37-2.14 0-1.52 0.41-2.8 1.23-3.86 0.9-1.15 2.15-1.73 3.75-1.73zm-104.16 0.18c0.96 0 1.86 0.17 2.68 0.51v9.76c-0.82 0.37-1.73 0.56-2.71 0.56-1.89 0-3.35-0.53-4.36-1.6-0.93-1-1.4-2.34-1.4-4.02 0-1.54 0.51-2.79 1.55-3.75 0.49-0.46 1.08-0.82 1.76-1.07 0.69-0.26 1.52-0.39 2.48-0.39zm-221.91 6.16h0.7c0.34 0 0.67 0.03 0.99 0.09v3.68c0 0.14 0 0.28 0.01 0.41-1.04 0.57-2.17 0.86-3.38 0.86-1.2 0-2.1-0.18-2.71-0.53-0.32-0.19-0.55-0.42-0.69-0.7-0.13-0.3-0.19-0.63-0.19-1.01 0-0.37 0.1-0.73 0.32-1.07 0.7-1.15 2.35-1.73 4.95-1.73zm153.22 0h0.71c0.34 0 0.67 0.03 0.98 0.09v3.68c0 0.14 0.01 0.28 0.02 0.41-1.04 0.57-2.17 0.86-3.38 0.86-1.2 0-2.1-0.18-2.71-0.53-0.32-0.19-0.55-0.42-0.69-0.7-0.13-0.3-0.19-0.63-0.19-1.01 0-0.37 0.1-0.73 0.31-1.07 0.71-1.15 2.36-1.73 4.95-1.73zm129.35 0h0.7c0.34 0 0.67 0.03 0.99 0.09v3.68c0 0.14 0.01 0.28 0.02 0.41-1.05 0.57-2.17 0.86-3.38 0.86-1.2 0-2.11-0.18-2.72-0.53-0.31-0.19-0.54-0.42-0.68-0.7-0.13-0.3-0.2-0.63-0.2-1.01 0-0.37 0.11-0.73 0.32-1.07 0.7-1.15 2.35-1.73 4.95-1.73zm-166.56 10.25l0.91 0.16c2.57 0.38 4.39 0.9 5.45 1.57 0.94 0.59 1.4 1.36 1.4 2.32 0 2.02-1.44 3.03-4.33 3.03-1.69 0-3.07-0.34-4.14-1.04-0.48-0.31-0.85-0.68-1.12-1.1-0.27-0.43-0.41-0.93-0.43-1.52 0-0.58 0.19-1.18 0.55-1.83s0.93-1.18 1.71-1.59z"><animateTransform
       repeatCount="indefinite"
       keySplines=".73 .18 .24 .87; .73 .18 .24 .87;"
       calcMode="spline"
       dur="5s"
       values="2 5; -2 5; 2 5"
       to="2 5"
       from="2 5"
       type="translate"
       attributeType="XML"
       attributeName="transform" /></path><path
     id="path69"
     filter="url(#chrome)"
     stroke-width="2"
     stroke="url(#gradient2)"
     fill="url(#gradient1)"
     d="m423.15 273.25c-7.63 0-11.72 3.47-12.27 10.41l-1.46 10.82c-0.97 7.91 2.5 11.86 10.4 11.86h15.4c7.22 0 11.31-3.47 12.28-10.4l1.46-10.83c0.83-7.9-2.78-11.86-10.82-11.86h-14.99zm-91.19 4.37c-23.87 0-42.46 0.7-55.77 2.08l-20.19 143.59h38.08l7.7-54.1h19.35c3.61 0 6.11 0.69 7.49 2.08 1.39 1.24 2.23 3.95 2.5 8.11l5 43.91h40.16l-6.24-43.7c-1.53-13.18-7.56-20.67-18.11-22.47l0.21-1.46c10.54-1.11 18.24-4.51 23.1-10.2s7.91-13.39 9.16-23.1c2.22-16.23-1.11-27.74-9.99-34.54-8.74-6.8-22.89-10.2-42.45-10.2zm148.63 14.36l-4.16 27.89-18.73 1.04-2.91 22.68h18.1l-7.7 52.44c-1.38 9.16 0.56 16.44 5.83 21.85 5.41 5.41 13.25 8.12 23.52 8.12 13.17 0 23.79-1.53 31.83-4.58l-1.87-25.18h-12.9c-3.61 0-5.9-0.49-6.87-1.46-0.97-1.11-1.18-3.33-0.62-6.66l6.24-44.53h26.64l3.33-23.72h-26.43l3.95-27.89h-37.25zm-149.26 14.15c6.24 0 10.34 1.11 12.28 3.33 2.08 2.22 2.7 6.38 1.87 12.49-1.11 7.49-3.12 12.48-6.03 14.98-2.92 2.5-7.91 3.75-14.99 3.75h-18.73l4.79-34.34 20.81-0.21zm385.89 10.82c-7.9 0-14.35 0.28-19.35 0.84-4.85 0.41-10.06 1.59-15.61 3.53-5.41 1.94-9.78 4.79-13.11 8.54-3.19 3.6-6.17 8.66-8.94 15.18-2.78 6.53-4.93 14.57-6.46 24.15-2.91 19.56-2.15 34.05 2.29 43.49 4.44 9.43 13.53 13.8 27.26 13.11 17.76-0.84 31.5-8.19 41.21-22.06v19.56h29.34l14.15-99.89c-4.99-1.52-12.9-2.98-23.72-4.37-10.82-1.38-19.84-2.08-27.06-2.08zm-311.34 2.92l-14.36 103.42h37.67l14.36-103.42h-37.67zm146.04 0l-3.33 25.38h49.32l-58.26 52.65h0.2l-3.32 25.39h96.14l3.32-25.39h-51.39l58.26-52.65h-0.21l3.13-25.38h-93.86zm163.43 22.89l12.28 0.2-5 35.17c-8.87 11.66-17.06 17.69-24.55 18.11-4.3 0.14-6.8-1.46-7.49-4.79-0.7-3.33-0.14-10.96 1.66-22.89 1.53-10.96 3.89-17.96 7.08-21.02 3.33-3.19 8.67-4.78 16.02-4.78zm-280.12 111.85c-1.02 1.11-2 2.41-2.94 3.87l3.96 2.86 1.36-1.92c0.43-0.6 0.9-1.21 1.4-1.83l-3.78-2.98zm228.47 0c-1.03 1.11-2.01 2.41-2.95 3.87l3.97 2.86 1.35-1.92c0.44-0.6 0.91-1.21 1.41-1.83l-3.78-2.98zm-86.92 1.28v7.84c-0.87-0.23-1.76-0.35-2.66-0.35-2.95 0-5.37 0.94-7.26 2.82-1.88 1.85-2.82 4.18-2.82 6.97 0 2.7 0.81 4.9 2.43 6.59 0.79 0.82 1.74 1.47 2.86 1.94 1.11 0.47 2.42 0.7 3.91 0.7s2.98-0.42 4.47-1.25c0.38 0.51 0.87 0.92 1.48 1.25l3.31-2.92c-0.28-0.2-0.51-0.41-0.7-0.64-0.18-0.22-0.34-0.57-0.5-1.05-0.14-0.48-0.21-1.51-0.21-3.07v-18.83h-4.31zm-200.8 1.06v25.19h4.44c-0.08-0.54-0.13-1.32-0.13-2.33v-1.88l3.35-3.56 5.5 8.03c0.74-0.18 1.62-0.26 2.65-0.26h2.79c-0.24-0.25-0.53-0.6-0.88-1.06l-1.16-1.64c-0.44-0.63-1.09-1.63-1.94-2.99l-3.97-5.41 6.94-7.31h-5.23l-8.05 8.65v-15.43h-4.31zm-55.5 1.62c-0.37 0.1-1.01 0.14-1.92 0.14-0.9 0-1.73-0.02-2.48-0.07v23.5h1.41c1.61 0 2.69 0.03 3.26 0.1v-14.95l5.77 9.48 5.76-10.31v15.78c0.57-0.07 1.65-0.1 3.26-0.1h1.41v-23.5c-0.75 0.05-1.65 0.07-2.71 0.07s-1.77-0.04-2.15-0.14l-5.69 10.06-5.92-10.06zm239.88 0c-2.63 0.1-5.29 0.14-7.98 0.14-0.96 0-1.85-0.01-2.67-0.03l-1.24-0.04c-0.38-0.01-0.74-0.03-1.05-0.05v23.55h13.19l0.18-4.42-0.07-0.02c-0.28 0.14-0.79 0.21-1.52 0.21h-7.18v-6.34h4.36c0.9 0 1.62 0.03 2.19 0.09l-0.06-4.35c-0.25 0.07-1.03 0.1-2.32 0.1h-4.17v-4.49h5.54c1.13 0 2 0.09 2.61 0.27l0.04-0.06c-0.03-0.09-0.04-0.23-0.04-0.42 0-1.73 0.06-3.1 0.19-4.14zm-141.41 0.14v5.02h-2.66c-0.01 0-0.01 0.1-0.01 0.3v2.71c0 0.36 0 0.7 0.01 1.04h2.66v8c0 2.32 0.54 4.03 1.61 5.12 0.51 0.53 1.14 0.91 1.86 1.15 0.74 0.23 1.42 0.35 2.05 0.35s1.16-0.03 1.58-0.09c1.56-0.19 2.63-0.57 3.21-1.14l-0.05-4.09h-0.15c-0.56 0.79-1.6 1.18-3.11 1.18-0.44 0-0.82-0.04-1.15-0.14-1.02-0.26-1.53-1.31-1.53-3.15v-7.19h4.84v-4.05h-4.84v-5.02h-4.32zm228.47 0v5.02h-2.66c-0.01 0-0.02 0.1-0.02 0.3v2.71c0 0.36 0.01 0.7 0.02 1.04h2.66v8c0 2.32 0.53 4.03 1.6 5.12 0.52 0.53 1.14 0.91 1.87 1.15 0.74 0.23 1.42 0.35 2.04 0.35 0.64 0 1.17-0.03 1.59-0.09 1.56-0.19 2.63-0.57 3.2-1.14l-0.05-4.09h-0.14c-0.56 0.79-1.6 1.18-3.12 1.18-0.43 0-0.81-0.04-1.14-0.14-1.02-0.26-1.53-1.31-1.53-3.15v-7.19h4.84v-4.05h-4.84v-5.02h-4.32zm-167.69 2.65c-0.2 0.22-0.65 0.58-1.37 1.07-0.71 0.48-1.84 1.04-3.36 1.69-1.17-0.49-2.41-0.74-3.74-0.74-2.52 0-4.58 0.74-6.16 2.22-1.51 1.41-2.26 3.16-2.26 5.25 0 1.86 0.67 3.43 1.99 4.68-1.13 0.91-1.71 2.01-1.71 3.31 0 0.78 0.09 1.47 0.27 2.08 0.19 0.6 0.55 1.12 1.09 1.57-1.98 1.09-2.94 2.86-2.87 5.3 0.05 2.1 0.96 3.79 2.75 5.06 1.78 1.26 4.13 1.9 7.04 1.9 2.89 0 5.07-0.57 6.54-1.69s2.2-2.72 2.2-4.81-0.58-3.71-1.74-4.85c-0.63-0.59-1.44-1.1-2.45-1.51-1-0.41-2.39-0.75-4.16-1.02-1.77-0.28-3.05-0.61-3.82-0.97-0.35-0.16-0.58-0.34-0.69-0.51-0.1-0.19-0.16-0.45-0.16-0.77 0-0.35 0.22-0.8 0.66-1.38 0.99 0.34 2.07 0.51 3.24 0.51 2.38 0 4.34-0.72 5.88-2.16 0.69-0.67 1.23-1.45 1.6-2.33 0.38-0.89 0.56-1.88 0.56-2.98 0-1.09-0.25-2.12-0.75-3.1 1.3-0.23 2.21-0.63 2.73-1.19-0.06-0.39-0.23-1.11-0.51-2.15l-0.32-1.27c-0.14-0.52-0.26-0.92-0.37-1.2l-0.11-0.01zm-129.39 2.02c-2.47 0-4.74 0.55-6.82 1.64l0.53 3.89 0.05 0.04c0.49-0.47 1.31-0.89 2.45-1.25 0.52-0.17 1.04-0.3 1.58-0.39 0.56-0.11 1.12-0.16 1.68-0.16 0.57 0 1.11 0.05 1.62 0.16 1.52 0.31 2.34 1.41 2.43 3.29-0.14-0.02-0.3-0.03-0.48-0.03-0.17-0.02-0.33-0.03-0.47-0.04l-0.71-0.02c-3.1 0-5.55 0.61-7.36 1.83-1.67 1.13-2.5 2.54-2.5 4.23 0 1.89 0.68 3.34 2.04 4.33 0.67 0.5 1.49 0.87 2.45 1.13 0.96 0.25 2.12 0.37 3.47 0.37s2.86-0.45 4.53-1.36c0.41 0.67 0.95 1.19 1.62 1.54l3.18-2.93c-0.96-0.49-1.44-1.42-1.44-2.78v-6.37c0-1.11-0.17-2.1-0.51-2.98-1.07-2.76-3.52-4.14-7.34-4.14zm20.62 0c-1.09 0-2.14 0.57-3.14 1.71v-1.36h-4.31v18.41h4.38c-0.04-0.31-0.07-0.97-0.07-1.98v-10.85c0.36-0.55 0.79-0.99 1.29-1.32 0.52-0.34 1.02-0.51 1.51-0.51 1.3 0 2.15 0.37 2.56 1.1l0.07-0.06 0.32-4.73c-0.64-0.27-1.51-0.41-2.61-0.41zm34.75 0c-2.96 0-5.35 0.93-7.19 2.8-0.85 0.88-1.52 1.91-1.99 3.08-0.47 1.18-0.7 2.45-0.7 3.82 0 2.73 0.98 4.97 2.94 6.71 1.95 1.74 4.42 2.61 7.4 2.61 0.54 0 1.1-0.03 1.69-0.11 1.99-0.23 3.44-0.65 4.33-1.26l0.19-2.75c0.04-0.52 0.07-1.02 0.09-1.51-0.17 0.15-0.44 0.31-0.79 0.49-1.34 0.67-2.94 1-4.81 1-1.78 0-3.23-0.34-4.35-1.04-1.11-0.7-1.82-1.68-2.13-2.94h6.2c3.6 0 5.99-0.16 7.17-0.49 0.14-0.34 0.21-0.98 0.21-1.9 0-2.42-0.75-4.43-2.24-6.03-1.51-1.65-3.52-2.48-6.02-2.48zm45.76 0c-1.76 0-3.42 0.64-4.97 1.92v-1.57h-4.28v18.41h4.42c-0.09-0.47-0.14-1.22-0.14-2.26v-10.05c1.04-1.6 2.34-2.4 3.89-2.4 2.09 0 3.14 1.72 3.14 5.16v9.6c0.63-0.04 1.14-0.05 1.51-0.05h1.24c0.43 0 1.12 0.04 2.07 0.12l0.04-0.07c-0.07-0.09-0.16-0.2-0.27-0.32-0.09-0.11-0.17-0.37-0.23-0.77-0.05-0.4-0.08-1.59-0.08-3.58v-7.01c0-2.13-0.58-3.86-1.73-5.16-1.15-1.31-2.69-1.97-4.61-1.97zm52.09 0c-2.46 0-4.73 0.55-6.81 1.64l0.53 3.89 0.05 0.04c0.49-0.47 1.31-0.89 2.45-1.25 0.51-0.17 1.04-0.3 1.58-0.39 0.55-0.11 1.11-0.16 1.68-0.16s1.11 0.05 1.62 0.16c1.52 0.31 2.33 1.41 2.43 3.29-0.14-0.02-0.3-0.03-0.48-0.03-0.17-0.02-0.33-0.03-0.48-0.04l-0.7-0.02c-3.1 0-5.55 0.61-7.36 1.83-1.67 1.13-2.5 2.54-2.5 4.23 0 1.89 0.68 3.34 2.04 4.33 0.67 0.5 1.49 0.87 2.45 1.13 0.96 0.25 2.12 0.37 3.47 0.37s2.86-0.45 4.52-1.36c0.42 0.67 0.96 1.19 1.63 1.54l3.18-2.93c-0.96-0.49-1.44-1.42-1.44-2.78v-6.37c0-1.11-0.17-2.1-0.51-2.98-1.07-2.76-3.52-4.14-7.35-4.14zm20.33 0c-2.47 0-4.4 0.52-5.8 1.55-1.41 1.04-2.11 2.48-2.11 4.31 0 1.51 0.5 2.72 1.5 3.65 0.54 0.49 1.24 0.92 2.09 1.27 0.86 0.35 1.96 0.62 3.3 0.81 1.35 0.17 2.37 0.44 3.06 0.79 0.39 0.21 0.58 0.54 0.58 0.97 0 1.35-1.01 2.03-3.05 2.03-1.51 0-2.97-0.25-4.36-0.73-0.65-0.22-1.22-0.48-1.71-0.77-0.49-0.3-0.83-0.54-1.01-0.74-0.17-0.21-0.26-0.31-0.28-0.28-0.01 0.01-0.03 0.12-0.05 0.33-0.02 0.2-0.08 0.72-0.17 1.55l-0.16 1.27c-0.05 0.44-0.09 0.85-0.11 1.2 1.68 1.21 4.17 1.81 7.49 1.81 2.47 0 4.41-0.54 5.79-1.64 1.33-1.03 1.99-2.37 1.99-4.03 0-1.51-0.42-2.73-1.27-3.65-0.45-0.5-1.06-0.93-1.81-1.28-0.75-0.37-1.86-0.65-3.31-0.86-1.45-0.22-2.59-0.54-3.42-0.99-0.45-0.24-0.67-0.58-0.67-1.02 0-1.29 1.07-1.94 3.21-1.94 0.5 0 0.99 0.05 1.48 0.14 1.56 0.27 2.71 0.84 3.45 1.69 0.16 0.25 0.26 0.37 0.28 0.37 0.01 0 0.03-0.05 0.05-0.14l0.41-1.04c0.13-0.34 0.33-0.9 0.6-1.67 0.09-0.28 0.18-0.58 0.26-0.88-1.73-1.39-3.81-2.08-6.25-2.08zm92.09 0c-3.06 0-5.51 0.96-7.34 2.87-1.73 1.82-2.59 4.14-2.59 6.97 0 2.79 0.87 5.02 2.62 6.7 1.73 1.65 3.96 2.48 6.68 2.48 2.81 0 4.87-0.66 6.18-1.97l-0.4-4.3-0.13-0.05c-0.34 0.62-0.98 1.17-1.93 1.64-0.45 0.22-0.95 0.39-1.5 0.52-0.54 0.13-1.18 0.2-1.92 0.2-0.73 0-1.42-0.14-2.08-0.42-1.9-0.85-2.85-2.65-2.85-5.39 0-1.55 0.41-2.8 1.23-3.74 0.41-0.46 0.9-0.81 1.48-1.07s1.37-0.39 2.38-0.39 2.02 0.18 3.03 0.53c0.62 0.21 1.21 0.66 1.78 1.34l0.12 0.01 0.7-4.5c-1.46-0.95-3.28-1.43-5.46-1.43zm16.93 0c-2.47 0-4.74 0.55-6.82 1.64l0.53 3.89 0.05 0.04c0.5-0.47 1.31-0.89 2.45-1.25 0.52-0.17 1.05-0.3 1.59-0.39 0.55-0.11 1.11-0.16 1.67-0.16 0.58 0 1.12 0.05 1.62 0.16 1.53 0.31 2.34 1.41 2.43 3.29-0.14-0.02-0.3-0.03-0.47-0.03-0.18-0.02-0.34-0.03-0.48-0.04l-0.7-0.02c-3.1 0-5.56 0.61-7.37 1.83-1.66 1.13-2.5 2.54-2.5 4.23 0 1.89 0.68 3.34 2.05 4.33 0.66 0.5 1.48 0.87 2.44 1.13 0.97 0.25 2.12 0.37 3.47 0.37s2.86-0.45 4.53-1.36c0.41 0.67 0.95 1.19 1.62 1.54l3.19-2.93c-0.96-0.49-1.45-1.42-1.45-2.78v-6.37c0-1.11-0.17-2.1-0.51-2.98-1.06-2.76-3.51-4.14-7.34-4.14zm45.63 0c-2.86 0-5.19 0.95-6.99 2.85-0.82 0.88-1.46 1.92-1.9 3.1s-0.65 2.41-0.65 3.7c0 2.68 0.77 4.87 2.3 6.57 1.7 1.87 4.03 2.8 7.01 2.8 2.89 0 5.21-0.95 6.96-2.85 1.66-1.8 2.48-4.06 2.48-6.8s-0.8-4.96-2.41-6.68c-1.68-1.79-3.94-2.69-6.8-2.69zm22.46 0c-1.76 0-3.42 0.64-4.97 1.92v-1.57h-4.28v18.41h4.42c-0.09-0.47-0.14-1.22-0.14-2.26v-10.05c1.05-1.6 2.34-2.4 3.89-2.4 2.09 0 3.14 1.72 3.14 5.16v9.6c0.63-0.04 1.14-0.05 1.51-0.05h1.24c0.43 0 1.12 0.04 2.07 0.12l0.04-0.07c-0.07-0.09-0.16-0.2-0.26-0.32-0.1-0.11-0.17-0.37-0.23-0.77s-0.09-1.59-0.09-3.58v-7.01c0-2.13-0.58-3.86-1.73-5.16-1.15-1.31-2.69-1.97-4.61-1.97zm-115.13 0.28c0.04 0.1 0.11 0.32 0.21 0.67 0.1 0.34 0.16 1.68 0.16 4.03v7c0 2.17 0.51 3.88 1.55 5.12 1.08 1.28 2.57 1.92 4.47 1.92 1.77 0 3.41-0.62 4.91-1.86v1.6h4.51c-0.09-0.47-0.14-1.22-0.14-2.26v-16.15h-4.37v13.02c-0.84 1.01-1.96 1.51-3.34 1.51-0.47 0-0.91-0.06-1.31-0.17-1.31-0.39-1.97-1.79-1.97-4.21v-10.2c-0.63 0.03-1.14 0.05-1.53 0.05h-1.46c-0.59 0-1.15-0.02-1.69-0.07zm-153.35 0.07v18.41h4.47c-0.05-0.31-0.07-0.97-0.07-1.98v-16.43h-4.4zm228.46 0v18.41h4.48c-0.05-0.31-0.07-0.97-0.07-1.98v-16.43h-4.41zm-255.82 3.35c2.27 0 3.64 1.26 4.13 3.79-0.31 0.02-0.66 0.04-1.04 0.05l-1.45 0.05c-0.57 0.01-1.16 0.02-1.76 0.02h-1c-0.4 0-0.82-0.01-1.25-0.02h-1.31c-0.41-0.01-0.75-0.02-1.04-0.03 0.16-0.57 0.37-1.08 0.66-1.55 0.92-1.54 2.28-2.31 4.06-2.31zm65.91 0.07c1.17 0 2.09 0.3 2.76 0.91 0.67 0.62 1.01 1.42 1.01 2.42 0 0.98-0.37 1.83-1.11 2.53-0.71 0.65-1.54 0.97-2.5 0.97-1.27 0-2.3-0.35-3.09-1.05-0.35-0.32-0.62-0.68-0.8-1.08s-0.27-0.81-0.27-1.25c0-0.43 0.08-0.86 0.25-1.29 0.56-1.44 1.81-2.16 3.75-2.16zm207.19 0.19c1.58 0 2.81 0.54 3.72 1.62 0.84 1.01 1.27 2.34 1.27 3.98 0 1.62-0.42 2.94-1.24 3.95-0.84 1.04-2 1.57-3.47 1.57-1.58 0-2.86-0.54-3.84-1.61-0.45-0.49-0.81-1.08-1.05-1.78-0.25-0.69-0.37-1.4-0.37-2.14 0-1.52 0.41-2.8 1.23-3.86 0.9-1.15 2.15-1.73 3.75-1.73zm-104.16 0.18c0.96 0 1.86 0.17 2.68 0.51v9.76c-0.82 0.37-1.73 0.56-2.71 0.56-1.89 0-3.35-0.53-4.36-1.6-0.93-1-1.4-2.34-1.4-4.02 0-1.54 0.51-2.79 1.55-3.75 0.49-0.46 1.08-0.82 1.76-1.07 0.69-0.26 1.52-0.39 2.48-0.39zm-221.91 6.16h0.7c0.34 0 0.67 0.03 0.99 0.09v3.68c0 0.14 0 0.28 0.01 0.41-1.04 0.57-2.17 0.86-3.38 0.86-1.2 0-2.1-0.18-2.71-0.53-0.32-0.19-0.55-0.42-0.69-0.7-0.13-0.3-0.19-0.63-0.19-1.01 0-0.37 0.1-0.73 0.32-1.07 0.7-1.15 2.35-1.73 4.95-1.73zm153.22 0h0.71c0.34 0 0.67 0.03 0.98 0.09v3.68c0 0.14 0.01 0.28 0.02 0.41-1.04 0.57-2.17 0.86-3.38 0.86-1.2 0-2.1-0.18-2.71-0.53-0.32-0.19-0.55-0.42-0.69-0.7-0.13-0.3-0.19-0.63-0.19-1.01 0-0.37 0.1-0.73 0.31-1.07 0.71-1.15 2.36-1.73 4.95-1.73zm129.35 0h0.7c0.34 0 0.67 0.03 0.99 0.09v3.68c0 0.14 0.01 0.28 0.02 0.41-1.05 0.57-2.17 0.86-3.38 0.86-1.2 0-2.11-0.18-2.72-0.53-0.31-0.19-0.54-0.42-0.68-0.7-0.13-0.3-0.2-0.63-0.2-1.01 0-0.37 0.11-0.73 0.32-1.07 0.7-1.15 2.35-1.73 4.95-1.73zm-166.56 10.25l0.91 0.16c2.57 0.38 4.39 0.9 5.45 1.57 0.94 0.59 1.4 1.36 1.4 2.32 0 2.02-1.44 3.03-4.33 3.03-1.69 0-3.07-0.34-4.14-1.04-0.48-0.31-0.85-0.68-1.12-1.1-0.27-0.43-0.41-0.93-0.43-1.52 0-0.58 0.19-1.18 0.55-1.83s0.93-1.18 1.71-1.59z" /></svg>