<?xml version="1.0" encoding="UTF-8" standalone="no"?>
<svg
   xmlns:dc="http://purl.org/dc/elements/1.1/"
   xmlns:cc="http://creativecommons.org/ns#"
   xmlns:rdf="http://www.w3.org/1999/02/22-rdf-syntax-ns#"
   xmlns:svg="http://www.w3.org/2000/svg"
   xmlns="http://www.w3.org/2000/svg"
   id="svg71"
   xml:space="preserve"
   viewBox="0 0 200 200"
   y="0px"
   x="0px"
   version="1.1"><metadata
     id="metadata75"><rdf:RDF><cc:Work
         rdf:about=""><dc:format>image/svg+xml</dc:format><dc:type
           rdf:resource="http://purl.org/dc/dcmitype/StillImage" /></cc:Work></rdf:RDF></metadata><defs
     id="defs65"><linearGradient
       y2="100%"
       x2="0"
       y1="0%"
       x1="0%"
       id="gradient1"><stop
         id="stop2"
         stop-color="#ffffff"
         offset="0%" /><stop
         id="stop4"
         stop-color="#b4b8b8"
         offset="16%" /><stop
         id="stop6"
         stop-color="#f3f3f3"
         offset="43%" /><stop
         id="stop8"
         stop-color="#bababa"
         offset="87%" /><stop
         id="stop10"
         stop-color="#ffffff"
         offset="100%" /></linearGradient><linearGradient
       y2="100%"
       x2="0%"
       y1="0%"
       x1="0%"
       id="gradient2"><stop
         id="stop13"
         stop-color="#535b5e"
         offset="0%" /><stop
         id="stop15"
         stop-color="#fefefe"
         offset="25%" /><stop
         id="stop17"
         stop-color="#636b6d"
         offset="50%" /><stop
         id="stop19"
         stop-color="#fdfdfd"
         offset="75%" /><stop
         id="stop21"
         stop-color="#535b5e"
         offset="100%" /></linearGradient><filter
       id="chrome"><!-- inner glow --><feOffset
         id="feOffset24"
         dy="20"
         dx="0"
         in="SourceGraphic"
         result="inner-glow" /><feFlood
         id="feFlood26"
         result="flood-white"
         flood-color="#ffffff" /><feComposite
         id="feComposite28"
         result="comp"
         in2="SourceAlpha"
         in="flood-white"
         operator="out" /><feOffset
         id="feOffset30"
         dy="4"
         dx="0"
         in="comp"
         result="comp" /><feMorphology
         id="feMorphology32"
         radius="2"
         operator="dilate"
         result="comp"
         in="comp" /><feGaussianBlur
         id="feGaussianBlur34"
         stdDeviation="2"
         result="comp"
         in="comp" /><feComposite
         id="feComposite36"
         result="comp"
         in2="SourceAlpha"
         in="comp"
         operator="in" /><feBlend
         id="feBlend38"
         mode="screen"
         in2="comp"
         in="SourceGraphic" /><!-- bevel --><feGaussianBlur
         id="feGaussianBlur40"
         result="bumpMap"
         in="SourceAlpha"
         stdDeviation="3" /><feMorphology
         id="feMorphology42"
         radius="2"
         operator="erode"
         result="bumpMap"
         in="bumpMap" /><feComponentTransfer
         id="feComponentTransfer46"
         result="bumpMap"
         in="bumpMap"><feFuncA
           id="feFuncA44"
           tableValues="0 .5 0 .5 0"
           type="table" /></feComponentTransfer><feDiffuseLighting
         id="feDiffuseLighting49"
         result="shading"
         diffuseConstant="3"
         surfaceScale="1"
         in="bumpMap"><fePointLight
           z="50"
           y="-100"
           x="0"
           id="light"><animate
             repeatCount="indefinite"
             keySplines=".73 .18 .24 .87;          .73 .18 .24 .87;"
             calcMode="spline"
             dur="5s"
             values="0;200;0"
             attributeName="x" /></fePointLight></feDiffuseLighting><feBlend
         id="feBlend51"
         result="comp2"
         mode="multiply"
         in2="shading"
         in="flood-white" /><feBlend
         id="feBlend53"
         mode="screen"
         result="output"
         in2="comp"
         in="comp2" /><feBlend
         id="feBlend55"
         mode="multiply"
         result="output"
         in2="SourceGraphic"
         in="output" /><feGaussianBlur
         id="feGaussianBlur57"
         stdDeviation="1"
         result="output"
         in="output" /><feComposite
         id="feComposite59"
         result="output"
         in2="SourceAlpha"
         in="output"
         operator="in" /></filter><filter
       height="200%"
       width="200%"
       y="-50%"
       x="-50%"
       id="shadow"><feGaussianBlur
         id="feGaussianBlur62"
         stdDeviation="3"
         in="SourceGraphic" /></filter></defs><path
     id="path67"
     opacity="0.7"
     filter="url(#shadow)"
     stroke-width="2"
     stroke="#000000"
     fill="#000000"
     transform="translate(3 5)"
     d="m109.41 40c-19.657 0-34.972 0.57199-45.943 1.7148l-16.627 118.28h31.371l6.3438-44.572h15.943c2.9714 0 5.0271 0.57199 6.1699 1.7149 1.1429 1.0286 1.83 3.257 2.0586 6.6855l4.11 36.17h33.086l-5.1426-36c-1.2571-10.857-6.2284-17.028-14.914-18.514l0.16991-1.2012c8.6857-0.91429 15.029-3.7147 19.029-8.4004s6.5144-11.027 7.543-19.027c1.8286-13.371-0.91424-22.857-8.2285-28.457-7.2-5.6-18.856-8.4004-34.971-8.4004zm-0.51563 23.486c5.1429 0 8.5152 0.91361 10.115 2.7422 1.7143 1.8286 2.2287 5.2566 1.543 10.285-0.91428 6.1714-2.5726 10.287-4.9726 12.344-2.4 2.0571-6.5132 3.0859-12.342 3.0859h-15.419l3.9434-28.287z"><animateTransform
       repeatCount="indefinite"
       keySplines=".73 .18 .24 .87; .73 .18 .24 .87;"
       calcMode="spline"
       dur="5s"
       values="2 5; -2 5; 2 5"
       to="2 5"
       from="2 5"
       type="translate"
       attributeType="XML"
       attributeName="transform" /></path><path
     id="path69"
     filter="url(#chrome)"
     stroke-width="2"
     stroke="url(#gradient2)"
     fill="url(#gradient1)"
     d="m109.41 40c-19.657 0-34.972 0.57199-45.943 1.7148l-16.627 118.28h31.371l6.3438-44.572h15.943c2.9714 0 5.0271 0.57199 6.1699 1.7149 1.1429 1.0286 1.83 3.257 2.0586 6.6855l4.11 36.17h33.086l-5.1426-36c-1.2571-10.857-6.2284-17.028-14.914-18.514l0.16991-1.2012c8.6857-0.91429 15.029-3.7147 19.029-8.4004s6.5144-11.027 7.543-19.027c1.8286-13.371-0.91424-22.857-8.2285-28.457-7.2-5.6-18.856-8.4004-34.971-8.4004zm-0.51563 23.486c5.1429 0 8.5152 0.91361 10.115 2.7422 1.7143 1.8286 2.2287 5.2566 1.543 10.285-0.91428 6.1714-2.5726 10.287-4.9726 12.344-2.4 2.0571-6.5132 3.0859-12.342 3.0859h-15.419l3.9434-28.287z" /></svg>