<?xml version="1.0" encoding="UTF-8" standalone="no"?>
<svg
   xmlns:dc="http://purl.org/dc/elements/1.1/"
   xmlns:cc="http://creativecommons.org/ns#"
   xmlns:rdf="http://www.w3.org/1999/02/22-rdf-syntax-ns#"
   xmlns:svg="http://www.w3.org/2000/svg"
   xmlns="http://www.w3.org/2000/svg"
   id="svg3"
   xml:space="preserve"
   viewBox="0 0 200 200"
   y="0px"
   x="0px"
   version="1.1"><metadata
     id="metadata9"><rdf:RDF><cc:Work
         rdf:about=""><dc:format>image/svg+xml</dc:format><dc:type
           rdf:resource="http://purl.org/dc/dcmitype/StillImage" /></cc:Work></rdf:RDF></metadata><defs
     id="defs7" /><path
     fill="#e46957"
     d="m109.41 40c-19.657 0-34.972 0.57199-45.943 1.7148l-16.627 118.28h31.371l6.3438-44.572h15.943c2.9714 0 5.0271 0.57199 6.1699 1.7149 1.1429 1.0286 1.83 3.257 2.0586 6.6855l4.11 36.17h33.086l-5.1426-36c-1.2571-10.857-6.2284-17.028-14.914-18.514l0.16991-1.2012c8.6857-0.91429 15.029-3.7147 19.029-8.4004s6.5144-11.027 7.543-19.027c1.8286-13.371-0.91424-22.857-8.2285-28.457-7.2-5.6-18.856-8.4004-34.971-8.4004zm-0.51563 23.486c5.1429 0 8.5152 0.91361 10.115 2.7422 1.7143 1.8286 2.2287 5.2566 1.543 10.285-0.91428 6.1714-2.5726 10.287-4.9726 12.344-2.4 2.0571-6.5132 3.0859-12.342 3.0859h-15.419l3.9434-28.287z"
     id="outline"><animate
       values="#e46957;                      #a77a74;                      #6a8b91;                      #2d9cae; #e46957"
       keyTimes="0;                        0.25;                        0.5;                        0.75;                        1"
       repeatCount="indefinite"
       dur="3s"
       attributeName="fill" /></path></svg>