<?xml version="1.0" encoding="UTF-8" standalone="no"?>
<svg
   xmlns:dc="http://purl.org/dc/elements/1.1/"
   xmlns:cc="http://creativecommons.org/ns#"
   xmlns:rdf="http://www.w3.org/1999/02/22-rdf-syntax-ns#"
   xmlns:svg="http://www.w3.org/2000/svg"
   xmlns="http://www.w3.org/2000/svg"
   xmlns:xlink="http://www.w3.org/1999/xlink"
   id="svg19"
   xml:space="preserve"
   viewBox="0 0 200 200"
   y="0px"
   x="0px"
   version="1.1"><metadata
     id="metadata23"><rdf:RDF><cc:Work
         rdf:about=""><dc:format>image/svg+xml</dc:format><dc:type
           rdf:resource="http://purl.org/dc/dcmitype/StillImage" /></cc:Work></rdf:RDF></metadata><defs
     id="defs4"><filter
       height="200%"
       width="200%"
       y="-50%"
       x="-50%"
       id="f1"><feGaussianBlur
         stdDeviation="5"
         in="SourceGraphic"
         id="blur1" /></filter></defs><g
     id="g17"
     transform="matrix(0.8,0,0,0.8,20,20)"><path
       style="opacity:0.6;fill:#000000;stroke:#000000;stroke-width:2;filter:url(#f1)"
       transform="translate(3,5)"
       d="m 109.41,40 c -19.657,0 -34.972,0.57199 -45.943,1.7148 l -16.627,118.28 h 31.371 l 6.3438,-44.572 h 15.943 c 2.9714,0 5.0271,0.57199 6.1699,1.7149 1.1429,1.0286 1.83,3.257 2.0586,6.6855 l 4.11,36.17 h 33.086 l -5.1426,-36 c -1.2571,-10.857 -6.2284,-17.028 -14.914,-18.514 l 0.16991,-1.2012 c 8.6857,-0.91429 15.029,-3.7147 19.029,-8.4004 4,-4.6857 6.5144,-11.027 7.543,-19.027 1.8286,-13.371 -0.91424,-22.857 -8.2285,-28.457 -7.2,-5.6 -18.856,-8.4004 -34.971,-8.4004 z m -0.51563,23.486 c 5.1429,0 8.5152,0.91361 10.115,2.7422 1.7143,1.8286 2.2287,5.2566 1.543,10.285 -0.91428,6.1714 -2.5726,10.287 -4.9726,12.344 -2.4,2.0571 -6.5132,3.0859 -12.342,3.0859 h -15.419 l 3.9434,-28.287 z"
       id="shadow" /><animate
       fill="freeze"
       repeatCount="indefinite"
       keySplines=".73 .18 .24 .87;          .73 .18 .24 .87;"
       calcMode="spline"
       keyTimes="0; 0.5; 1"
       values="5; 30; 5"
       begin="0s"
       dur="4s"
       to="5"
       from="5"
       attributeName="stdDeviation"
       xlink:href="#blur1" /><animate
       fill="freeze"
       repeatCount="indefinite"
       keyTimes="0; 0.5; 1"
       values="0.6; 0.1; 0.6"
       begin="0s"
       dur="4s"
       to="0.1"
       from="0.6"
       attributeName="opacity"
       xlink:href="#shadow" /><animateTransform
       repeatCount="indefinite"
       dur="4s"
       keySplines=".73 .18 .24 .87;          .73 .18 .24 .87;"
       calcMode="spline"
       values="0 0; 0 -10; 0 0"
       to="0 0"
       from="0 0"
       type="translate"
       attributeType="XML"
       attributeName="transform"
       xlink:href="#logo-hover" /><g
       id="logo-hover"><defs
         id="defs161306" /><linearGradient
         spreadMethod="pad"
         y2="0.30000001"
         x2="-0.1"
         y1="1.2"
         x1="0.30000001"
         id="3d_gradient2-logo-8cbaeaf9-841b-4631-8c9d-d3e02a4d4cc4"><stop
           id="stop161283"
           stop-opacity="1"
           stop-color="#ffffff"
           offset="0%" /><stop
           id="stop161285"
           stop-opacity="1"
           stop-color="#000000"
           offset="100%" /></linearGradient><linearGradient
         gradientTransform="rotate(-30)"
         spreadMethod="pad"
         y2="0.30000001"
         x2="-0.1"
         y1="1.2"
         x1="0.30000001"
         id="3d_gradient3-logo-8cbaeaf9-841b-4631-8c9d-d3e02a4d4cc4"><stop
           id="stop161288"
           stop-opacity="1"
           stop-color="#ffffff"
           offset="0%" /><stop
           id="stop161290"
           stop-opacity="1"
           stop-color="#cccccc"
           offset="50%" /><stop
           id="stop161292"
           stop-opacity="1"
           stop-color="#000000"
           offset="100%" /></linearGradient><path
         stroke-miterlimit="2"
         d="M 46.840002,160 63.468574,41.714285 q 16.457143,-1.714286 45.942886,-1.714286 24.1714,0 34.97142,8.4 10.97143,8.4 8.22858,28.457143 -1.54289,12 -7.54286,19.028572 -6.00003,7.028576 -19.0286,8.399996 l -0.17143,1.2 Q 138.89715,107.71429 140.78286,124 l 5.14286,36 h -33.08569 l -4.11429,-36.17143 q -0.34288,-5.14286 -2.05717,-6.68571 -1.71428,-1.71429 -6.17142,-1.71429 H 84.554312 L 78.211431,160 Z M 87.811455,91.942857 H 103.24 q 8.74286,0 12.34286,-3.085715 3.6,-3.085714 4.97143,-12.342857 1.02857,-7.542857 -1.54286,-10.285714 -2.39997,-2.742857 -10.11426,-2.742857 l -17.142858,0.171428 z"
         style="font-style:oblique;font-weight:800;font-size:72px;line-height:1;font-family:'Exo 2';font-variant-ligatures:none;text-align:center;text-anchor:middle;fill:#e46957;stroke:#e46957;stroke-width:0;stroke-linejoin:miter;stroke-miterlimit:2"
         id="path161351" /></g></g></svg>