<?xml version="1.0" encoding="UTF-8" standalone="no"?>
<svg
   xmlns:dc="http://purl.org/dc/elements/1.1/"
   xmlns:cc="http://creativecommons.org/ns#"
   xmlns:rdf="http://www.w3.org/1999/02/22-rdf-syntax-ns#"
   xmlns:svg="http://www.w3.org/2000/svg"
   xmlns="http://www.w3.org/2000/svg"
   id="svg20"
   xml:space="preserve"
   viewBox="0 0 200 200"
   y="0px"
   x="0px"
   version="1.1"><metadata
     id="metadata24"><rdf:RDF><cc:Work
         rdf:about=""><dc:format>image/svg+xml</dc:format><dc:type
           rdf:resource="http://purl.org/dc/dcmitype/StillImage" /></cc:Work></rdf:RDF></metadata><style
     id="style2">
.clip{
  animation: slide 8s linear infinite;
}

@keyframes slide {
  from {
    transform: matrix(1.7, 0, 0, 1.7, 0, -200);
  }
  50% {
    transform: matrix(1.7, 0, 0, 1.7, 0, 0);
  }
  to {
    transform: matrix(1.7, 0, 0, 1.7, 0, -200);
  }
}
</style><defs
     id="defs7"><clipPath
       id="circle-clip"><path
         id="path4"
         transform="matrix(8.6, 0, 0, 6, 0, 0)"
         d="M101.807,123.37c10-0.352,18.193,5.401,18.193,5.401V0H0v128.771c0,0,9.701-5.227,17.069-5.227s10.464,6.314,20.877,6.314  c10.175,0,12.703-4.209,22.053-4.209s11.981,5.438,20.578,5.438S91.807,123.722,101.807,123.37z"
         class="clip"><animate
           values="M101.807,123.37c10-0.352,18.193,5.401,18.193,5.401V0H0v128.771c0,0,9.701-5.227,17.069-5.227s10.464,6.314,20.877,6.314  c10.175,0,12.703-4.209,22.053-4.209s11.981,5.438,20.578,5.438S91.807,123.722,101.807,123.37z;M101.807,135.303c10-0.352,18.193-6.531,18.193-6.531V0H0v128.771c0,0,9.701,4.952,17.069,4.952s10.464-9.299,20.877-9.299  c10.175,0,12.703,9.299,22.053,9.299s11.981-9.123,20.578-9.123S91.807,135.654,101.807,135.303z ;M101.807,123.37c10-0.352,18.193,5.401,18.193,5.401V0H0v128.771c0,0,9.701-5.227,17.069-5.227s10.464,6.314,20.877,6.314  c10.175,0,12.703-4.209,22.053-4.209s11.981,5.438,20.578,5.438S91.807,123.722,101.807,123.37z"
           to="M101.807,123.37c10-0.352,18.193,5.401,18.193,5.401V0H0v128.771c0,0,9.701-5.227,17.069-5.227s10.464,6.314,20.877,6.314  c10.175,0,12.703-4.209,22.053-4.209s11.981,5.438,20.578,5.438S91.807,123.722,101.807,123.37z"
           from="M101.807,123.37c10-0.352,18.193,5.401,18.193,5.401V0H0v128.771c0,0,9.701-5.227,17.069-5.227s10.464,6.314,20.877,6.314  c10.175,0,12.703-4.209,22.053-4.209s11.981,5.438,20.578,5.438S91.807,123.722,101.807,123.37z"
           attributeName="d"
           repeatCount="indefinite"
           begin="0"
           dur="1"
           id="morph-one" /></path></clipPath></defs><g
     id="g18"
     clip-path="url(#circle-clip)"><defs
       id="defs161306" /><linearGradient
       spreadMethod="pad"
       y2="0.30000001"
       x2="-0.1"
       y1="1.2"
       x1="0.30000001"
       id="3d_gradient2-logo-8cbaeaf9-841b-4631-8c9d-d3e02a4d4cc4"><stop
         id="stop161283"
         stop-opacity="1"
         stop-color="#ffffff"
         offset="0%" /><stop
         id="stop161285"
         stop-opacity="1"
         stop-color="#000000"
         offset="100%" /></linearGradient><linearGradient
       gradientTransform="rotate(-30)"
       spreadMethod="pad"
       y2="0.30000001"
       x2="-0.1"
       y1="1.2"
       x1="0.30000001"
       id="3d_gradient3-logo-8cbaeaf9-841b-4631-8c9d-d3e02a4d4cc4"><stop
         id="stop161288"
         stop-opacity="1"
         stop-color="#ffffff"
         offset="0%" /><stop
         id="stop161290"
         stop-opacity="1"
         stop-color="#cccccc"
         offset="50%" /><stop
         id="stop161292"
         stop-opacity="1"
         stop-color="#000000"
         offset="100%" /></linearGradient><path
       stroke-miterlimit="2"
       d="M 46.840002,160 63.468574,41.714285 q 16.457143,-1.714286 45.942886,-1.714286 24.1714,0 34.97142,8.4 10.97143,8.4 8.22858,28.457143 -1.54289,12 -7.54286,19.028572 -6.00003,7.028576 -19.0286,8.399996 l -0.17143,1.2 Q 138.89715,107.71429 140.78286,124 l 5.14286,36 h -33.08569 l -4.11429,-36.17143 q -0.34288,-5.14286 -2.05717,-6.68571 -1.71428,-1.71429 -6.17142,-1.71429 H 84.554312 L 78.211431,160 Z M 87.811455,91.942857 H 103.24 q 8.74286,0 12.34286,-3.085715 3.6,-3.085714 4.97143,-12.342857 1.02857,-7.542857 -1.54286,-10.285714 -2.39997,-2.742857 -10.11426,-2.742857 l -17.142858,0.171428 z"
       style="font-style:oblique;font-weight:800;font-size:72px;line-height:1;font-family:'Exo 2';font-variant-ligatures:none;text-align:center;text-anchor:middle;fill:#e46957;stroke:#e46957;stroke-width:0;stroke-linejoin:miter;stroke-miterlimit:2"
       id="path161351" /></g></svg>