<?xml version="1.0" encoding="UTF-8" standalone="no"?>
<svg
   xmlns:dc="http://purl.org/dc/elements/1.1/"
   xmlns:cc="http://creativecommons.org/ns#"
   xmlns:rdf="http://www.w3.org/1999/02/22-rdf-syntax-ns#"
   xmlns:svg="http://www.w3.org/2000/svg"
   xmlns="http://www.w3.org/2000/svg"
   id="svg75"
   xml:space="preserve"
   viewBox="0 0 1024 1024"
   y="0px"
   x="0px"
   version="1.1"><metadata
     id="metadata79"><rdf:RDF><cc:Work
         rdf:about=""><dc:format>image/svg+xml</dc:format><dc:type
           rdf:resource="http://purl.org/dc/dcmitype/StillImage" /></cc:Work></rdf:RDF></metadata><defs
     id="defs67"><linearGradient
       y2="100%"
       x2="0"
       y1="0%"
       x1="0%"
       id="gradient1"><stop
         id="stop2"
         stop-color="#ffffff"
         offset="0%" /><stop
         id="stop4"
         stop-color="#b4b8b8"
         offset="16%" /><stop
         id="stop6"
         stop-color="#f3f3f3"
         offset="43%" /><stop
         id="stop8"
         stop-color="#bababa"
         offset="87%" /><stop
         id="stop10"
         stop-color="#ffffff"
         offset="100%" /></linearGradient><linearGradient
       y2="100%"
       x2="0%"
       y1="0%"
       x1="0%"
       id="gradient2"><stop
         id="stop13"
         stop-color="#b4b8b8"
         offset="0%" /><stop
         id="stop15"
         stop-color="#eceded"
         offset="16%" /><stop
         id="stop17"
         stop-color="#b4b8b8"
         offset="43%" /><stop
         id="stop19"
         stop-color="#efefef"
         offset="87%" /><stop
         id="stop21"
         stop-color="#ededed"
         offset="100%" /></linearGradient><filter
       id="chrome"><!-- inner glow --><feOffset
         id="feOffset24"
         dy="20"
         dx="0"
         in="SourceGraphic"
         result="inner-glow" /><feFlood
         id="feFlood26"
         result="flood-white"
         flood-color="#ffffff" /><feComposite
         id="feComposite28"
         result="comp"
         in2="SourceAlpha"
         in="flood-white"
         operator="out" /><feOffset
         id="feOffset30"
         dy="4"
         dx="0"
         in="comp"
         result="comp" /><feMorphology
         id="feMorphology32"
         radius="2"
         operator="dilate"
         result="comp"
         in="comp" /><feGaussianBlur
         id="feGaussianBlur34"
         stdDeviation="2"
         result="comp"
         in="comp" /><feComposite
         id="feComposite36"
         result="comp"
         in2="SourceAlpha"
         in="comp"
         operator="in" /><feBlend
         id="feBlend38"
         mode="screen"
         in2="comp"
         in="SourceGraphic" /><!-- bevel --><feGaussianBlur
         id="feGaussianBlur40"
         result="bumpMap"
         in="SourceAlpha"
         stdDeviation="3" /><feMorphology
         id="feMorphology42"
         radius="4"
         operator="erode"
         result="bumpMap"
         in="bumpMap" /><feDiffuseLighting
         id="feDiffuseLighting45"
         result="shading"
         diffuseConstant="4"
         surfaceScale="1"
         in="bumpMap"><fePointLight
           z="100"
           y="0"
           x="0"
           id="light"><animate
             repeatCount="indefinite"
             keySplines=".73 .18 .24 .87;          .73 .18 .24 .87;"
             calcMode="spline"
             dur="5s"
             values="0;1024;0"
             attributeName="x" /></fePointLight></feDiffuseLighting><feBlend
         id="feBlend47"
         result="comp2"
         mode="multiply"
         in2="shading"
         in="flood-white" /><feGaussianBlur
         id="feGaussianBlur49"
         stdDeviation="1"
         result="blur"
         in="SourceAlpha" /><feMorphology
         id="feMorphology51"
         radius="7"
         operator="erode"
         result="blur"
         in="blur" /><feComposite
         id="feComposite53"
         result="comp2"
         in2="blur"
         in="comp2"
         operator="in" /><feBlend
         id="feBlend55"
         mode="screen"
         result="output"
         in2="comp"
         in="comp2" /><feBlend
         id="feBlend57"
         mode="multiply"
         result="output"
         in2="SourceGraphic"
         in="output" /><feGaussianBlur
         id="feGaussianBlur59"
         stdDeviation="2"
         result="output"
         in="output" /><feComposite
         id="feComposite61"
         result="output"
         in2="SourceAlpha"
         in="output"
         operator="in" /></filter><filter
       height="200%"
       width="200%"
       y="-50%"
       x="-50%"
       id="shadow"><feGaussianBlur
         id="feGaussianBlur64"
         stdDeviation="3"
         in="SourceGraphic" /></filter></defs><g
     id="g73"
     transform="translate(0,128)"><path
       style="opacity:0.7;fill:#000000;stroke:#000000;stroke-width:2;filter:url(#shadow)"
       id="path69"
       transform="translate(2,5)"
       d="m 423.15,273.25 c -7.63,0 -11.72,3.47 -12.27,10.41 l -1.46,10.82 c -0.97,7.91 2.5,11.86 10.4,11.86 h 15.4 c 7.22,0 11.31,-3.47 12.28,-10.4 l 1.46,-10.83 c 0.83,-7.9 -2.78,-11.86 -10.82,-11.86 z m -91.19,4.37 c -23.87,0 -42.46,0.7 -55.77,2.08 L 256,423.29 h 38.08 l 7.7,-54.1 h 19.35 c 3.61,0 6.11,0.69 7.49,2.08 1.39,1.24 2.23,3.95 2.5,8.11 l 5,43.91 h 40.16 l -6.24,-43.7 c -1.53,-13.18 -7.56,-20.67 -18.11,-22.47 l 0.21,-1.46 c 10.54,-1.11 18.24,-4.51 23.1,-10.2 4.86,-5.69 7.91,-13.39 9.16,-23.1 2.22,-16.23 -1.11,-27.74 -9.99,-34.54 -8.74,-6.8 -22.89,-10.2 -42.45,-10.2 z m 148.63,14.36 -4.16,27.89 -18.73,1.04 -2.91,22.68 h 18.1 l -7.7,52.44 c -1.38,9.16 0.56,16.44 5.83,21.85 5.41,5.41 13.25,8.12 23.52,8.12 13.17,0 23.79,-1.53 31.83,-4.58 l -1.87,-25.18 h -12.9 c -3.61,0 -5.9,-0.49 -6.87,-1.46 -0.97,-1.11 -1.18,-3.33 -0.62,-6.66 l 6.24,-44.53 h 26.64 l 3.33,-23.72 h -26.43 l 3.95,-27.89 z m -149.26,14.15 c 6.24,0 10.34,1.11 12.28,3.33 2.08,2.22 2.7,6.38 1.87,12.49 -1.11,7.49 -3.12,12.48 -6.03,14.98 -2.92,2.5 -7.91,3.75 -14.99,3.75 h -18.73 l 4.79,-34.34 z m 385.89,10.82 c -7.9,0 -14.35,0.28 -19.35,0.84 -4.85,0.41 -10.06,1.59 -15.61,3.53 -5.41,1.94 -9.78,4.79 -13.11,8.54 -3.19,3.6 -6.17,8.66 -8.94,15.18 -2.78,6.53 -4.93,14.57 -6.46,24.15 -2.91,19.56 -2.15,34.05 2.29,43.49 4.44,9.43 13.53,13.8 27.26,13.11 17.76,-0.84 31.5,-8.19 41.21,-22.06 v 19.56 h 29.34 L 768,323.4 c -4.99,-1.52 -12.9,-2.98 -23.72,-4.37 -10.82,-1.38 -19.84,-2.08 -27.06,-2.08 z m -311.34,2.92 -14.36,103.42 h 37.67 l 14.36,-103.42 z m 146.04,0 -3.33,25.38 h 49.32 l -58.26,52.65 h 0.2 l -3.32,25.39 h 96.14 l 3.32,-25.39 H 584.6 l 58.26,-52.65 h -0.21 l 3.13,-25.38 z m 163.43,22.89 12.28,0.2 -5,35.17 c -8.87,11.66 -17.06,17.69 -24.55,18.11 -4.3,0.14 -6.8,-1.46 -7.49,-4.79 -0.7,-3.33 -0.14,-10.96 1.66,-22.89 1.53,-10.96 3.89,-17.96 7.08,-21.02 3.33,-3.19 8.67,-4.78 16.02,-4.78 z M 435.23,454.61 c -1.02,1.11 -2,2.41 -2.94,3.87 l 3.96,2.86 1.36,-1.92 c 0.43,-0.6 0.9,-1.21 1.4,-1.83 z m 228.47,0 c -1.03,1.11 -2.01,2.41 -2.95,3.87 l 3.97,2.86 1.35,-1.92 c 0.44,-0.6 0.91,-1.21 1.41,-1.83 z m -86.92,1.28 v 7.84 c -0.87,-0.23 -1.76,-0.35 -2.66,-0.35 -2.95,0 -5.37,0.94 -7.26,2.82 -1.88,1.85 -2.82,4.18 -2.82,6.97 0,2.7 0.81,4.9 2.43,6.59 0.79,0.82 1.74,1.47 2.86,1.94 1.11,0.47 2.42,0.7 3.91,0.7 1.49,0 2.98,-0.42 4.47,-1.25 0.38,0.51 0.87,0.92 1.48,1.25 l 3.31,-2.92 c -0.28,-0.2 -0.51,-0.41 -0.7,-0.64 -0.18,-0.22 -0.34,-0.57 -0.5,-1.05 -0.14,-0.48 -0.21,-1.51 -0.21,-3.07 v -18.83 z m -200.8,1.06 v 25.19 h 4.44 c -0.08,-0.54 -0.13,-1.32 -0.13,-2.33 v -1.88 l 3.35,-3.56 5.5,8.03 c 0.74,-0.18 1.62,-0.26 2.65,-0.26 h 2.79 c -0.24,-0.25 -0.53,-0.6 -0.88,-1.06 l -1.16,-1.64 c -0.44,-0.63 -1.09,-1.63 -1.94,-2.99 l -3.97,-5.41 6.94,-7.31 h -5.23 l -8.05,8.65 v -15.43 z m -55.5,1.62 c -0.37,0.1 -1.01,0.14 -1.92,0.14 -0.9,0 -1.73,-0.02 -2.48,-0.07 v 23.5 h 1.41 c 1.61,0 2.69,0.03 3.26,0.1 v -14.95 l 5.77,9.48 5.76,-10.31 v 15.78 c 0.57,-0.07 1.65,-0.1 3.26,-0.1 h 1.41 v -23.5 c -0.75,0.05 -1.65,0.07 -2.71,0.07 -1.06,0 -1.77,-0.04 -2.15,-0.14 l -5.69,10.06 z m 239.88,0 c -2.63,0.1 -5.29,0.14 -7.98,0.14 -0.96,0 -1.85,-0.01 -2.67,-0.03 l -1.24,-0.04 c -0.38,-0.01 -0.74,-0.03 -1.05,-0.05 v 23.55 h 13.19 l 0.18,-4.42 -0.07,-0.02 c -0.28,0.14 -0.79,0.21 -1.52,0.21 h -7.18 v -6.34 h 4.36 c 0.9,0 1.62,0.03 2.19,0.09 l -0.06,-4.35 c -0.25,0.07 -1.03,0.1 -2.32,0.1 h -4.17 v -4.49 h 5.54 c 1.13,0 2,0.09 2.61,0.27 l 0.04,-0.06 c -0.03,-0.09 -0.04,-0.23 -0.04,-0.42 0,-1.73 0.06,-3.1 0.19,-4.14 z m -141.41,0.14 v 5.02 h -2.66 c -0.01,0 -0.01,0.1 -0.01,0.3 v 2.71 c 0,0.36 0,0.7 0.01,1.04 h 2.66 v 8 c 0,2.32 0.54,4.03 1.61,5.12 0.51,0.53 1.14,0.91 1.86,1.15 0.74,0.23 1.42,0.35 2.05,0.35 0.63,0 1.16,-0.03 1.58,-0.09 1.56,-0.19 2.63,-0.57 3.21,-1.14 l -0.05,-4.09 h -0.15 c -0.56,0.79 -1.6,1.18 -3.11,1.18 -0.44,0 -0.82,-0.04 -1.15,-0.14 -1.02,-0.26 -1.53,-1.31 -1.53,-3.15 v -7.19 h 4.84 v -4.05 h -4.84 v -5.02 z m 228.47,0 v 5.02 h -2.66 c -0.01,0 -0.02,0.1 -0.02,0.3 v 2.71 c 0,0.36 0.01,0.7 0.02,1.04 h 2.66 v 8 c 0,2.32 0.53,4.03 1.6,5.12 0.52,0.53 1.14,0.91 1.87,1.15 0.74,0.23 1.42,0.35 2.04,0.35 0.64,0 1.17,-0.03 1.59,-0.09 1.56,-0.19 2.63,-0.57 3.2,-1.14 l -0.05,-4.09 h -0.14 c -0.56,0.79 -1.6,1.18 -3.12,1.18 -0.43,0 -0.81,-0.04 -1.14,-0.14 -1.02,-0.26 -1.53,-1.31 -1.53,-3.15 v -7.19 h 4.84 v -4.05 h -4.84 v -5.02 z m -167.69,2.65 c -0.2,0.22 -0.65,0.58 -1.37,1.07 -0.71,0.48 -1.84,1.04 -3.36,1.69 -1.17,-0.49 -2.41,-0.74 -3.74,-0.74 -2.52,0 -4.58,0.74 -6.16,2.22 -1.51,1.41 -2.26,3.16 -2.26,5.25 0,1.86 0.67,3.43 1.99,4.68 -1.13,0.91 -1.71,2.01 -1.71,3.31 0,0.78 0.09,1.47 0.27,2.08 0.19,0.6 0.55,1.12 1.09,1.57 -1.98,1.09 -2.94,2.86 -2.87,5.3 0.05,2.1 0.96,3.79 2.75,5.06 1.78,1.26 4.13,1.9 7.04,1.9 2.89,0 5.07,-0.57 6.54,-1.69 1.47,-1.12 2.2,-2.72 2.2,-4.81 0,-2.09 -0.58,-3.71 -1.74,-4.85 -0.63,-0.59 -1.44,-1.1 -2.45,-1.51 -1,-0.41 -2.39,-0.75 -4.16,-1.02 -1.77,-0.28 -3.05,-0.61 -3.82,-0.97 -0.35,-0.16 -0.58,-0.34 -0.69,-0.51 -0.1,-0.19 -0.16,-0.45 -0.16,-0.77 0,-0.35 0.22,-0.8 0.66,-1.38 0.99,0.34 2.07,0.51 3.24,0.51 2.38,0 4.34,-0.72 5.88,-2.16 0.69,-0.67 1.23,-1.45 1.6,-2.33 0.38,-0.89 0.56,-1.88 0.56,-2.98 0,-1.09 -0.25,-2.12 -0.75,-3.1 1.3,-0.23 2.21,-0.63 2.73,-1.19 -0.06,-0.39 -0.23,-1.11 -0.51,-2.15 l -0.32,-1.27 c -0.14,-0.52 -0.26,-0.92 -0.37,-1.2 z m -129.39,2.02 c -2.47,0 -4.74,0.55 -6.82,1.64 l 0.53,3.89 0.05,0.04 c 0.49,-0.47 1.31,-0.89 2.45,-1.25 0.52,-0.17 1.04,-0.3 1.58,-0.39 0.56,-0.11 1.12,-0.16 1.68,-0.16 0.57,0 1.11,0.05 1.62,0.16 1.52,0.31 2.34,1.41 2.43,3.29 -0.14,-0.02 -0.3,-0.03 -0.48,-0.03 -0.17,-0.02 -0.33,-0.03 -0.47,-0.04 l -0.71,-0.02 c -3.1,0 -5.55,0.61 -7.36,1.83 -1.67,1.13 -2.5,2.54 -2.5,4.23 0,1.89 0.68,3.34 2.04,4.33 0.67,0.5 1.49,0.87 2.45,1.13 0.96,0.25 2.12,0.37 3.47,0.37 1.35,0 2.86,-0.45 4.53,-1.36 0.41,0.67 0.95,1.19 1.62,1.54 l 3.18,-2.93 c -0.96,-0.49 -1.44,-1.42 -1.44,-2.78 v -6.37 c 0,-1.11 -0.17,-2.1 -0.51,-2.98 -1.07,-2.76 -3.52,-4.14 -7.34,-4.14 z m 20.62,0 c -1.09,0 -2.14,0.57 -3.14,1.71 v -1.36 h -4.31 v 18.41 h 4.38 c -0.04,-0.31 -0.07,-0.97 -0.07,-1.98 v -10.85 c 0.36,-0.55 0.79,-0.99 1.29,-1.32 0.52,-0.34 1.02,-0.51 1.51,-0.51 1.3,0 2.15,0.37 2.56,1.1 l 0.07,-0.06 0.32,-4.73 c -0.64,-0.27 -1.51,-0.41 -2.61,-0.41 z m 34.75,0 c -2.96,0 -5.35,0.93 -7.19,2.8 -0.85,0.88 -1.52,1.91 -1.99,3.08 -0.47,1.18 -0.7,2.45 -0.7,3.82 0,2.73 0.98,4.97 2.94,6.71 1.95,1.74 4.42,2.61 7.4,2.61 0.54,0 1.1,-0.03 1.69,-0.11 1.99,-0.23 3.44,-0.65 4.33,-1.26 l 0.19,-2.75 c 0.04,-0.52 0.07,-1.02 0.09,-1.51 -0.17,0.15 -0.44,0.31 -0.79,0.49 -1.34,0.67 -2.94,1 -4.81,1 -1.78,0 -3.23,-0.34 -4.35,-1.04 -1.11,-0.7 -1.82,-1.68 -2.13,-2.94 h 6.2 c 3.6,0 5.99,-0.16 7.17,-0.49 0.14,-0.34 0.21,-0.98 0.21,-1.9 0,-2.42 -0.75,-4.43 -2.24,-6.03 -1.51,-1.65 -3.52,-2.48 -6.02,-2.48 z m 45.76,0 c -1.76,0 -3.42,0.64 -4.97,1.92 v -1.57 h -4.28 v 18.41 h 4.42 c -0.09,-0.47 -0.14,-1.22 -0.14,-2.26 v -10.05 c 1.04,-1.6 2.34,-2.4 3.89,-2.4 2.09,0 3.14,1.72 3.14,5.16 v 9.6 c 0.63,-0.04 1.14,-0.05 1.51,-0.05 h 1.24 c 0.43,0 1.12,0.04 2.07,0.12 l 0.04,-0.07 c -0.07,-0.09 -0.16,-0.2 -0.27,-0.32 -0.09,-0.11 -0.17,-0.37 -0.23,-0.77 -0.05,-0.4 -0.08,-1.59 -0.08,-3.58 v -7.01 c 0,-2.13 -0.58,-3.86 -1.73,-5.16 -1.15,-1.31 -2.69,-1.97 -4.61,-1.97 z m 52.09,0 c -2.46,0 -4.73,0.55 -6.81,1.64 l 0.53,3.89 0.05,0.04 c 0.49,-0.47 1.31,-0.89 2.45,-1.25 0.51,-0.17 1.04,-0.3 1.58,-0.39 0.55,-0.11 1.11,-0.16 1.68,-0.16 0.57,0 1.11,0.05 1.62,0.16 1.52,0.31 2.33,1.41 2.43,3.29 -0.14,-0.02 -0.3,-0.03 -0.48,-0.03 -0.17,-0.02 -0.33,-0.03 -0.48,-0.04 l -0.7,-0.02 c -3.1,0 -5.55,0.61 -7.36,1.83 -1.67,1.13 -2.5,2.54 -2.5,4.23 0,1.89 0.68,3.34 2.04,4.33 0.67,0.5 1.49,0.87 2.45,1.13 0.96,0.25 2.12,0.37 3.47,0.37 1.35,0 2.86,-0.45 4.52,-1.36 0.42,0.67 0.96,1.19 1.63,1.54 l 3.18,-2.93 c -0.96,-0.49 -1.44,-1.42 -1.44,-2.78 v -6.37 c 0,-1.11 -0.17,-2.1 -0.51,-2.98 -1.07,-2.76 -3.52,-4.14 -7.35,-4.14 z m 20.33,0 c -2.47,0 -4.4,0.52 -5.8,1.55 -1.41,1.04 -2.11,2.48 -2.11,4.31 0,1.51 0.5,2.72 1.5,3.65 0.54,0.49 1.24,0.92 2.09,1.27 0.86,0.35 1.96,0.62 3.3,0.81 1.35,0.17 2.37,0.44 3.06,0.79 0.39,0.21 0.58,0.54 0.58,0.97 0,1.35 -1.01,2.03 -3.05,2.03 -1.51,0 -2.97,-0.25 -4.36,-0.73 -0.65,-0.22 -1.22,-0.48 -1.71,-0.77 -0.49,-0.3 -0.83,-0.54 -1.01,-0.74 -0.17,-0.21 -0.26,-0.31 -0.28,-0.28 -0.01,0.01 -0.03,0.12 -0.05,0.33 -0.02,0.2 -0.08,0.72 -0.17,1.55 l -0.16,1.27 c -0.05,0.44 -0.09,0.85 -0.11,1.2 1.68,1.21 4.17,1.81 7.49,1.81 2.47,0 4.41,-0.54 5.79,-1.64 1.33,-1.03 1.99,-2.37 1.99,-4.03 0,-1.51 -0.42,-2.73 -1.27,-3.65 -0.45,-0.5 -1.06,-0.93 -1.81,-1.28 -0.75,-0.37 -1.86,-0.65 -3.31,-0.86 -1.45,-0.22 -2.59,-0.54 -3.42,-0.99 -0.45,-0.24 -0.67,-0.58 -0.67,-1.02 0,-1.29 1.07,-1.94 3.21,-1.94 0.5,0 0.99,0.05 1.48,0.14 1.56,0.27 2.71,0.84 3.45,1.69 0.16,0.25 0.26,0.37 0.28,0.37 0.01,0 0.03,-0.05 0.05,-0.14 l 0.41,-1.04 c 0.13,-0.34 0.33,-0.9 0.6,-1.67 0.09,-0.28 0.18,-0.58 0.26,-0.88 -1.73,-1.39 -3.81,-2.08 -6.25,-2.08 z m 92.09,0 c -3.06,0 -5.51,0.96 -7.34,2.87 -1.73,1.82 -2.59,4.14 -2.59,6.97 0,2.79 0.87,5.02 2.62,6.7 1.73,1.65 3.96,2.48 6.68,2.48 2.81,0 4.87,-0.66 6.18,-1.97 l -0.4,-4.3 -0.13,-0.05 c -0.34,0.62 -0.98,1.17 -1.93,1.64 -0.45,0.22 -0.95,0.39 -1.5,0.52 -0.54,0.13 -1.18,0.2 -1.92,0.2 -0.73,0 -1.42,-0.14 -2.08,-0.42 -1.9,-0.85 -2.85,-2.65 -2.85,-5.39 0,-1.55 0.41,-2.8 1.23,-3.74 0.41,-0.46 0.9,-0.81 1.48,-1.07 0.58,-0.26 1.37,-0.39 2.38,-0.39 1.01,0 2.02,0.18 3.03,0.53 0.62,0.21 1.21,0.66 1.78,1.34 l 0.12,0.01 0.7,-4.5 c -1.46,-0.95 -3.28,-1.43 -5.46,-1.43 z m 16.93,0 c -2.47,0 -4.74,0.55 -6.82,1.64 l 0.53,3.89 0.05,0.04 c 0.5,-0.47 1.31,-0.89 2.45,-1.25 0.52,-0.17 1.05,-0.3 1.59,-0.39 0.55,-0.11 1.11,-0.16 1.67,-0.16 0.58,0 1.12,0.05 1.62,0.16 1.53,0.31 2.34,1.41 2.43,3.29 -0.14,-0.02 -0.3,-0.03 -0.47,-0.03 -0.18,-0.02 -0.34,-0.03 -0.48,-0.04 l -0.7,-0.02 c -3.1,0 -5.56,0.61 -7.37,1.83 -1.66,1.13 -2.5,2.54 -2.5,4.23 0,1.89 0.68,3.34 2.05,4.33 0.66,0.5 1.48,0.87 2.44,1.13 0.97,0.25 2.12,0.37 3.47,0.37 1.35,0 2.86,-0.45 4.53,-1.36 0.41,0.67 0.95,1.19 1.62,1.54 l 3.19,-2.93 c -0.96,-0.49 -1.45,-1.42 -1.45,-2.78 v -6.37 c 0,-1.11 -0.17,-2.1 -0.51,-2.98 -1.06,-2.76 -3.51,-4.14 -7.34,-4.14 z m 45.63,0 c -2.86,0 -5.19,0.95 -6.99,2.85 -0.82,0.88 -1.46,1.92 -1.9,3.1 -0.44,1.18 -0.65,2.41 -0.65,3.7 0,2.68 0.77,4.87 2.3,6.57 1.7,1.87 4.03,2.8 7.01,2.8 2.89,0 5.21,-0.95 6.96,-2.85 1.66,-1.8 2.48,-4.06 2.48,-6.8 0,-2.74 -0.8,-4.96 -2.41,-6.68 -1.68,-1.79 -3.94,-2.69 -6.8,-2.69 z m 22.46,0 c -1.76,0 -3.42,0.64 -4.97,1.92 v -1.57 h -4.28 v 18.41 h 4.42 c -0.09,-0.47 -0.14,-1.22 -0.14,-2.26 v -10.05 c 1.05,-1.6 2.34,-2.4 3.89,-2.4 2.09,0 3.14,1.72 3.14,5.16 v 9.6 c 0.63,-0.04 1.14,-0.05 1.51,-0.05 h 1.24 c 0.43,0 1.12,0.04 2.07,0.12 l 0.04,-0.07 c -0.07,-0.09 -0.16,-0.2 -0.26,-0.32 -0.1,-0.11 -0.17,-0.37 -0.23,-0.77 -0.06,-0.4 -0.09,-1.59 -0.09,-3.58 v -7.01 c 0,-2.13 -0.58,-3.86 -1.73,-5.16 -1.15,-1.31 -2.69,-1.97 -4.61,-1.97 z m -115.13,0.28 c 0.04,0.1 0.11,0.32 0.21,0.67 0.1,0.34 0.16,1.68 0.16,4.03 v 7 c 0,2.17 0.51,3.88 1.55,5.12 1.08,1.28 2.57,1.92 4.47,1.92 1.77,0 3.41,-0.62 4.91,-1.86 v 1.6 h 4.51 c -0.09,-0.47 -0.14,-1.22 -0.14,-2.26 v -16.15 h -4.37 v 13.02 c -0.84,1.01 -1.96,1.51 -3.34,1.51 -0.47,0 -0.91,-0.06 -1.31,-0.17 -1.31,-0.39 -1.97,-1.79 -1.97,-4.21 v -10.2 c -0.63,0.03 -1.14,0.05 -1.53,0.05 h -1.46 c -0.59,0 -1.15,-0.02 -1.69,-0.07 z m -153.35,0.07 v 18.41 h 4.47 c -0.05,-0.31 -0.07,-0.97 -0.07,-1.98 v -16.43 z m 228.46,0 v 18.41 h 4.48 c -0.05,-0.31 -0.07,-0.97 -0.07,-1.98 v -16.43 z m -255.82,3.35 c 2.27,0 3.64,1.26 4.13,3.79 -0.31,0.02 -0.66,0.04 -1.04,0.05 l -1.45,0.05 c -0.57,0.01 -1.16,0.02 -1.76,0.02 h -1 c -0.4,0 -0.82,-0.01 -1.25,-0.02 h -1.31 c -0.41,-0.01 -0.75,-0.02 -1.04,-0.03 0.16,-0.57 0.37,-1.08 0.66,-1.55 0.92,-1.54 2.28,-2.31 4.06,-2.31 z m 65.91,0.07 c 1.17,0 2.09,0.3 2.76,0.91 0.67,0.62 1.01,1.42 1.01,2.42 0,0.98 -0.37,1.83 -1.11,2.53 -0.71,0.65 -1.54,0.97 -2.5,0.97 -1.27,0 -2.3,-0.35 -3.09,-1.05 -0.35,-0.32 -0.62,-0.68 -0.8,-1.08 -0.18,-0.4 -0.27,-0.81 -0.27,-1.25 0,-0.43 0.08,-0.86 0.25,-1.29 0.56,-1.44 1.81,-2.16 3.75,-2.16 z m 207.19,0.19 c 1.58,0 2.81,0.54 3.72,1.62 0.84,1.01 1.27,2.34 1.27,3.98 0,1.62 -0.42,2.94 -1.24,3.95 -0.84,1.04 -2,1.57 -3.47,1.57 -1.58,0 -2.86,-0.54 -3.84,-1.61 -0.45,-0.49 -0.81,-1.08 -1.05,-1.78 -0.25,-0.69 -0.37,-1.4 -0.37,-2.14 0,-1.52 0.41,-2.8 1.23,-3.86 0.9,-1.15 2.15,-1.73 3.75,-1.73 z m -104.16,0.18 c 0.96,0 1.86,0.17 2.68,0.51 v 9.76 c -0.82,0.37 -1.73,0.56 -2.71,0.56 -1.89,0 -3.35,-0.53 -4.36,-1.6 -0.93,-1 -1.4,-2.34 -1.4,-4.02 0,-1.54 0.51,-2.79 1.55,-3.75 0.49,-0.46 1.08,-0.82 1.76,-1.07 0.69,-0.26 1.52,-0.39 2.48,-0.39 z m -221.91,6.16 h 0.7 c 0.34,0 0.67,0.03 0.99,0.09 v 3.68 c 0,0.14 0,0.28 0.01,0.41 -1.04,0.57 -2.17,0.86 -3.38,0.86 -1.2,0 -2.1,-0.18 -2.71,-0.53 -0.32,-0.19 -0.55,-0.42 -0.69,-0.7 -0.13,-0.3 -0.19,-0.63 -0.19,-1.01 0,-0.37 0.1,-0.73 0.32,-1.07 0.7,-1.15 2.35,-1.73 4.95,-1.73 z m 153.22,0 h 0.71 c 0.34,0 0.67,0.03 0.98,0.09 v 3.68 c 0,0.14 0.01,0.28 0.02,0.41 -1.04,0.57 -2.17,0.86 -3.38,0.86 -1.2,0 -2.1,-0.18 -2.71,-0.53 -0.32,-0.19 -0.55,-0.42 -0.69,-0.7 -0.13,-0.3 -0.19,-0.63 -0.19,-1.01 0,-0.37 0.1,-0.73 0.31,-1.07 0.71,-1.15 2.36,-1.73 4.95,-1.73 z m 129.35,0 h 0.7 c 0.34,0 0.67,0.03 0.99,0.09 v 3.68 c 0,0.14 0.01,0.28 0.02,0.41 -1.05,0.57 -2.17,0.86 -3.38,0.86 -1.2,0 -2.11,-0.18 -2.72,-0.53 -0.31,-0.19 -0.54,-0.42 -0.68,-0.7 -0.13,-0.3 -0.2,-0.63 -0.2,-1.01 0,-0.37 0.11,-0.73 0.32,-1.07 0.7,-1.15 2.35,-1.73 4.95,-1.73 z m -166.56,10.25 0.91,0.16 c 2.57,0.38 4.39,0.9 5.45,1.57 0.94,0.59 1.4,1.36 1.4,2.32 0,2.02 -1.44,3.03 -4.33,3.03 -1.69,0 -3.07,-0.34 -4.14,-1.04 -0.48,-0.31 -0.85,-0.68 -1.12,-1.1 -0.27,-0.43 -0.41,-0.93 -0.43,-1.52 0,-0.58 0.19,-1.18 0.55,-1.83 0.36,-0.65 0.93,-1.18 1.71,-1.59 z"><animateTransform
         repeatCount="indefinite"
         keySplines=".73 .18 .24 .87; .73 .18 .24 .87;"
         calcMode="spline"
         dur="5s"
         values="2 5; -2 5; 2 5"
         to="2 5"
         from="2 5"
         type="translate"
         attributeType="XML"
         attributeName="transform" /></path><path
       style="fill:url(#gradient1);stroke:url(#gradient2);stroke-width:4;filter:url(#chrome)"
       id="path71"
       d="m 423.15,273.25 c -7.63,0 -11.72,3.47 -12.27,10.41 l -1.46,10.82 c -0.97,7.91 2.5,11.86 10.4,11.86 h 15.4 c 7.22,0 11.31,-3.47 12.28,-10.4 l 1.46,-10.83 c 0.83,-7.9 -2.78,-11.86 -10.82,-11.86 z m -91.19,4.37 c -23.87,0 -42.46,0.7 -55.77,2.08 L 256,423.29 h 38.08 l 7.7,-54.1 h 19.35 c 3.61,0 6.11,0.69 7.49,2.08 1.39,1.24 2.23,3.95 2.5,8.11 l 5,43.91 h 40.16 l -6.24,-43.7 c -1.53,-13.18 -7.56,-20.67 -18.11,-22.47 l 0.21,-1.46 c 10.54,-1.11 18.24,-4.51 23.1,-10.2 4.86,-5.69 7.91,-13.39 9.16,-23.1 2.22,-16.23 -1.11,-27.74 -9.99,-34.54 -8.74,-6.8 -22.89,-10.2 -42.45,-10.2 z m 148.63,14.36 -4.16,27.89 -18.73,1.04 -2.91,22.68 h 18.1 l -7.7,52.44 c -1.38,9.16 0.56,16.44 5.83,21.85 5.41,5.41 13.25,8.12 23.52,8.12 13.17,0 23.79,-1.53 31.83,-4.58 l -1.87,-25.18 h -12.9 c -3.61,0 -5.9,-0.49 -6.87,-1.46 -0.97,-1.11 -1.18,-3.33 -0.62,-6.66 l 6.24,-44.53 h 26.64 l 3.33,-23.72 h -26.43 l 3.95,-27.89 z m -149.26,14.15 c 6.24,0 10.34,1.11 12.28,3.33 2.08,2.22 2.7,6.38 1.87,12.49 -1.11,7.49 -3.12,12.48 -6.03,14.98 -2.92,2.5 -7.91,3.75 -14.99,3.75 h -18.73 l 4.79,-34.34 z m 385.89,10.82 c -7.9,0 -14.35,0.28 -19.35,0.84 -4.85,0.41 -10.06,1.59 -15.61,3.53 -5.41,1.94 -9.78,4.79 -13.11,8.54 -3.19,3.6 -6.17,8.66 -8.94,15.18 -2.78,6.53 -4.93,14.57 -6.46,24.15 -2.91,19.56 -2.15,34.05 2.29,43.49 4.44,9.43 13.53,13.8 27.26,13.11 17.76,-0.84 31.5,-8.19 41.21,-22.06 v 19.56 h 29.34 L 768,323.4 c -4.99,-1.52 -12.9,-2.98 -23.72,-4.37 -10.82,-1.38 -19.84,-2.08 -27.06,-2.08 z m -311.34,2.92 -14.36,103.42 h 37.67 l 14.36,-103.42 z m 146.04,0 -3.33,25.38 h 49.32 l -58.26,52.65 h 0.2 l -3.32,25.39 h 96.14 l 3.32,-25.39 H 584.6 l 58.26,-52.65 h -0.21 l 3.13,-25.38 z m 163.43,22.89 12.28,0.2 -5,35.17 c -8.87,11.66 -17.06,17.69 -24.55,18.11 -4.3,0.14 -6.8,-1.46 -7.49,-4.79 -0.7,-3.33 -0.14,-10.96 1.66,-22.89 1.53,-10.96 3.89,-17.96 7.08,-21.02 3.33,-3.19 8.67,-4.78 16.02,-4.78 z M 435.23,454.61 c -1.02,1.11 -2,2.41 -2.94,3.87 l 3.96,2.86 1.36,-1.92 c 0.43,-0.6 0.9,-1.21 1.4,-1.83 z m 228.47,0 c -1.03,1.11 -2.01,2.41 -2.95,3.87 l 3.97,2.86 1.35,-1.92 c 0.44,-0.6 0.91,-1.21 1.41,-1.83 z m -86.92,1.28 v 7.84 c -0.87,-0.23 -1.76,-0.35 -2.66,-0.35 -2.95,0 -5.37,0.94 -7.26,2.82 -1.88,1.85 -2.82,4.18 -2.82,6.97 0,2.7 0.81,4.9 2.43,6.59 0.79,0.82 1.74,1.47 2.86,1.94 1.11,0.47 2.42,0.7 3.91,0.7 1.49,0 2.98,-0.42 4.47,-1.25 0.38,0.51 0.87,0.92 1.48,1.25 l 3.31,-2.92 c -0.28,-0.2 -0.51,-0.41 -0.7,-0.64 -0.18,-0.22 -0.34,-0.57 -0.5,-1.05 -0.14,-0.48 -0.21,-1.51 -0.21,-3.07 v -18.83 z m -200.8,1.06 v 25.19 h 4.44 c -0.08,-0.54 -0.13,-1.32 -0.13,-2.33 v -1.88 l 3.35,-3.56 5.5,8.03 c 0.74,-0.18 1.62,-0.26 2.65,-0.26 h 2.79 c -0.24,-0.25 -0.53,-0.6 -0.88,-1.06 l -1.16,-1.64 c -0.44,-0.63 -1.09,-1.63 -1.94,-2.99 l -3.97,-5.41 6.94,-7.31 h -5.23 l -8.05,8.65 v -15.43 z m -55.5,1.62 c -0.37,0.1 -1.01,0.14 -1.92,0.14 -0.9,0 -1.73,-0.02 -2.48,-0.07 v 23.5 h 1.41 c 1.61,0 2.69,0.03 3.26,0.1 v -14.95 l 5.77,9.48 5.76,-10.31 v 15.78 c 0.57,-0.07 1.65,-0.1 3.26,-0.1 h 1.41 v -23.5 c -0.75,0.05 -1.65,0.07 -2.71,0.07 -1.06,0 -1.77,-0.04 -2.15,-0.14 l -5.69,10.06 z m 239.88,0 c -2.63,0.1 -5.29,0.14 -7.98,0.14 -0.96,0 -1.85,-0.01 -2.67,-0.03 l -1.24,-0.04 c -0.38,-0.01 -0.74,-0.03 -1.05,-0.05 v 23.55 h 13.19 l 0.18,-4.42 -0.07,-0.02 c -0.28,0.14 -0.79,0.21 -1.52,0.21 h -7.18 v -6.34 h 4.36 c 0.9,0 1.62,0.03 2.19,0.09 l -0.06,-4.35 c -0.25,0.07 -1.03,0.1 -2.32,0.1 h -4.17 v -4.49 h 5.54 c 1.13,0 2,0.09 2.61,0.27 l 0.04,-0.06 c -0.03,-0.09 -0.04,-0.23 -0.04,-0.42 0,-1.73 0.06,-3.1 0.19,-4.14 z m -141.41,0.14 v 5.02 h -2.66 c -0.01,0 -0.01,0.1 -0.01,0.3 v 2.71 c 0,0.36 0,0.7 0.01,1.04 h 2.66 v 8 c 0,2.32 0.54,4.03 1.61,5.12 0.51,0.53 1.14,0.91 1.86,1.15 0.74,0.23 1.42,0.35 2.05,0.35 0.63,0 1.16,-0.03 1.58,-0.09 1.56,-0.19 2.63,-0.57 3.21,-1.14 l -0.05,-4.09 h -0.15 c -0.56,0.79 -1.6,1.18 -3.11,1.18 -0.44,0 -0.82,-0.04 -1.15,-0.14 -1.02,-0.26 -1.53,-1.31 -1.53,-3.15 v -7.19 h 4.84 v -4.05 h -4.84 v -5.02 z m 228.47,0 v 5.02 h -2.66 c -0.01,0 -0.02,0.1 -0.02,0.3 v 2.71 c 0,0.36 0.01,0.7 0.02,1.04 h 2.66 v 8 c 0,2.32 0.53,4.03 1.6,5.12 0.52,0.53 1.14,0.91 1.87,1.15 0.74,0.23 1.42,0.35 2.04,0.35 0.64,0 1.17,-0.03 1.59,-0.09 1.56,-0.19 2.63,-0.57 3.2,-1.14 l -0.05,-4.09 h -0.14 c -0.56,0.79 -1.6,1.18 -3.12,1.18 -0.43,0 -0.81,-0.04 -1.14,-0.14 -1.02,-0.26 -1.53,-1.31 -1.53,-3.15 v -7.19 h 4.84 v -4.05 h -4.84 v -5.02 z m -167.69,2.65 c -0.2,0.22 -0.65,0.58 -1.37,1.07 -0.71,0.48 -1.84,1.04 -3.36,1.69 -1.17,-0.49 -2.41,-0.74 -3.74,-0.74 -2.52,0 -4.58,0.74 -6.16,2.22 -1.51,1.41 -2.26,3.16 -2.26,5.25 0,1.86 0.67,3.43 1.99,4.68 -1.13,0.91 -1.71,2.01 -1.71,3.31 0,0.78 0.09,1.47 0.27,2.08 0.19,0.6 0.55,1.12 1.09,1.57 -1.98,1.09 -2.94,2.86 -2.87,5.3 0.05,2.1 0.96,3.79 2.75,5.06 1.78,1.26 4.13,1.9 7.04,1.9 2.89,0 5.07,-0.57 6.54,-1.69 1.47,-1.12 2.2,-2.72 2.2,-4.81 0,-2.09 -0.58,-3.71 -1.74,-4.85 -0.63,-0.59 -1.44,-1.1 -2.45,-1.51 -1,-0.41 -2.39,-0.75 -4.16,-1.02 -1.77,-0.28 -3.05,-0.61 -3.82,-0.97 -0.35,-0.16 -0.58,-0.34 -0.69,-0.51 -0.1,-0.19 -0.16,-0.45 -0.16,-0.77 0,-0.35 0.22,-0.8 0.66,-1.38 0.99,0.34 2.07,0.51 3.24,0.51 2.38,0 4.34,-0.72 5.88,-2.16 0.69,-0.67 1.23,-1.45 1.6,-2.33 0.38,-0.89 0.56,-1.88 0.56,-2.98 0,-1.09 -0.25,-2.12 -0.75,-3.1 1.3,-0.23 2.21,-0.63 2.73,-1.19 -0.06,-0.39 -0.23,-1.11 -0.51,-2.15 l -0.32,-1.27 c -0.14,-0.52 -0.26,-0.92 -0.37,-1.2 z m -129.39,2.02 c -2.47,0 -4.74,0.55 -6.82,1.64 l 0.53,3.89 0.05,0.04 c 0.49,-0.47 1.31,-0.89 2.45,-1.25 0.52,-0.17 1.04,-0.3 1.58,-0.39 0.56,-0.11 1.12,-0.16 1.68,-0.16 0.57,0 1.11,0.05 1.62,0.16 1.52,0.31 2.34,1.41 2.43,3.29 -0.14,-0.02 -0.3,-0.03 -0.48,-0.03 -0.17,-0.02 -0.33,-0.03 -0.47,-0.04 l -0.71,-0.02 c -3.1,0 -5.55,0.61 -7.36,1.83 -1.67,1.13 -2.5,2.54 -2.5,4.23 0,1.89 0.68,3.34 2.04,4.33 0.67,0.5 1.49,0.87 2.45,1.13 0.96,0.25 2.12,0.37 3.47,0.37 1.35,0 2.86,-0.45 4.53,-1.36 0.41,0.67 0.95,1.19 1.62,1.54 l 3.18,-2.93 c -0.96,-0.49 -1.44,-1.42 -1.44,-2.78 v -6.37 c 0,-1.11 -0.17,-2.1 -0.51,-2.98 -1.07,-2.76 -3.52,-4.14 -7.34,-4.14 z m 20.62,0 c -1.09,0 -2.14,0.57 -3.14,1.71 v -1.36 h -4.31 v 18.41 h 4.38 c -0.04,-0.31 -0.07,-0.97 -0.07,-1.98 v -10.85 c 0.36,-0.55 0.79,-0.99 1.29,-1.32 0.52,-0.34 1.02,-0.51 1.51,-0.51 1.3,0 2.15,0.37 2.56,1.1 l 0.07,-0.06 0.32,-4.73 c -0.64,-0.27 -1.51,-0.41 -2.61,-0.41 z m 34.75,0 c -2.96,0 -5.35,0.93 -7.19,2.8 -0.85,0.88 -1.52,1.91 -1.99,3.08 -0.47,1.18 -0.7,2.45 -0.7,3.82 0,2.73 0.98,4.97 2.94,6.71 1.95,1.74 4.42,2.61 7.4,2.61 0.54,0 1.1,-0.03 1.69,-0.11 1.99,-0.23 3.44,-0.65 4.33,-1.26 l 0.19,-2.75 c 0.04,-0.52 0.07,-1.02 0.09,-1.51 -0.17,0.15 -0.44,0.31 -0.79,0.49 -1.34,0.67 -2.94,1 -4.81,1 -1.78,0 -3.23,-0.34 -4.35,-1.04 -1.11,-0.7 -1.82,-1.68 -2.13,-2.94 h 6.2 c 3.6,0 5.99,-0.16 7.17,-0.49 0.14,-0.34 0.21,-0.98 0.21,-1.9 0,-2.42 -0.75,-4.43 -2.24,-6.03 -1.51,-1.65 -3.52,-2.48 -6.02,-2.48 z m 45.76,0 c -1.76,0 -3.42,0.64 -4.97,1.92 v -1.57 h -4.28 v 18.41 h 4.42 c -0.09,-0.47 -0.14,-1.22 -0.14,-2.26 v -10.05 c 1.04,-1.6 2.34,-2.4 3.89,-2.4 2.09,0 3.14,1.72 3.14,5.16 v 9.6 c 0.63,-0.04 1.14,-0.05 1.51,-0.05 h 1.24 c 0.43,0 1.12,0.04 2.07,0.12 l 0.04,-0.07 c -0.07,-0.09 -0.16,-0.2 -0.27,-0.32 -0.09,-0.11 -0.17,-0.37 -0.23,-0.77 -0.05,-0.4 -0.08,-1.59 -0.08,-3.58 v -7.01 c 0,-2.13 -0.58,-3.86 -1.73,-5.16 -1.15,-1.31 -2.69,-1.97 -4.61,-1.97 z m 52.09,0 c -2.46,0 -4.73,0.55 -6.81,1.64 l 0.53,3.89 0.05,0.04 c 0.49,-0.47 1.31,-0.89 2.45,-1.25 0.51,-0.17 1.04,-0.3 1.58,-0.39 0.55,-0.11 1.11,-0.16 1.68,-0.16 0.57,0 1.11,0.05 1.62,0.16 1.52,0.31 2.33,1.41 2.43,3.29 -0.14,-0.02 -0.3,-0.03 -0.48,-0.03 -0.17,-0.02 -0.33,-0.03 -0.48,-0.04 l -0.7,-0.02 c -3.1,0 -5.55,0.61 -7.36,1.83 -1.67,1.13 -2.5,2.54 -2.5,4.23 0,1.89 0.68,3.34 2.04,4.33 0.67,0.5 1.49,0.87 2.45,1.13 0.96,0.25 2.12,0.37 3.47,0.37 1.35,0 2.86,-0.45 4.52,-1.36 0.42,0.67 0.96,1.19 1.63,1.54 l 3.18,-2.93 c -0.96,-0.49 -1.44,-1.42 -1.44,-2.78 v -6.37 c 0,-1.11 -0.17,-2.1 -0.51,-2.98 -1.07,-2.76 -3.52,-4.14 -7.35,-4.14 z m 20.33,0 c -2.47,0 -4.4,0.52 -5.8,1.55 -1.41,1.04 -2.11,2.48 -2.11,4.31 0,1.51 0.5,2.72 1.5,3.65 0.54,0.49 1.24,0.92 2.09,1.27 0.86,0.35 1.96,0.62 3.3,0.81 1.35,0.17 2.37,0.44 3.06,0.79 0.39,0.21 0.58,0.54 0.58,0.97 0,1.35 -1.01,2.03 -3.05,2.03 -1.51,0 -2.97,-0.25 -4.36,-0.73 -0.65,-0.22 -1.22,-0.48 -1.71,-0.77 -0.49,-0.3 -0.83,-0.54 -1.01,-0.74 -0.17,-0.21 -0.26,-0.31 -0.28,-0.28 -0.01,0.01 -0.03,0.12 -0.05,0.33 -0.02,0.2 -0.08,0.72 -0.17,1.55 l -0.16,1.27 c -0.05,0.44 -0.09,0.85 -0.11,1.2 1.68,1.21 4.17,1.81 7.49,1.81 2.47,0 4.41,-0.54 5.79,-1.64 1.33,-1.03 1.99,-2.37 1.99,-4.03 0,-1.51 -0.42,-2.73 -1.27,-3.65 -0.45,-0.5 -1.06,-0.93 -1.81,-1.28 -0.75,-0.37 -1.86,-0.65 -3.31,-0.86 -1.45,-0.22 -2.59,-0.54 -3.42,-0.99 -0.45,-0.24 -0.67,-0.58 -0.67,-1.02 0,-1.29 1.07,-1.94 3.21,-1.94 0.5,0 0.99,0.05 1.48,0.14 1.56,0.27 2.71,0.84 3.45,1.69 0.16,0.25 0.26,0.37 0.28,0.37 0.01,0 0.03,-0.05 0.05,-0.14 l 0.41,-1.04 c 0.13,-0.34 0.33,-0.9 0.6,-1.67 0.09,-0.28 0.18,-0.58 0.26,-0.88 -1.73,-1.39 -3.81,-2.08 -6.25,-2.08 z m 92.09,0 c -3.06,0 -5.51,0.96 -7.34,2.87 -1.73,1.82 -2.59,4.14 -2.59,6.97 0,2.79 0.87,5.02 2.62,6.7 1.73,1.65 3.96,2.48 6.68,2.48 2.81,0 4.87,-0.66 6.18,-1.97 l -0.4,-4.3 -0.13,-0.05 c -0.34,0.62 -0.98,1.17 -1.93,1.64 -0.45,0.22 -0.95,0.39 -1.5,0.52 -0.54,0.13 -1.18,0.2 -1.92,0.2 -0.73,0 -1.42,-0.14 -2.08,-0.42 -1.9,-0.85 -2.85,-2.65 -2.85,-5.39 0,-1.55 0.41,-2.8 1.23,-3.74 0.41,-0.46 0.9,-0.81 1.48,-1.07 0.58,-0.26 1.37,-0.39 2.38,-0.39 1.01,0 2.02,0.18 3.03,0.53 0.62,0.21 1.21,0.66 1.78,1.34 l 0.12,0.01 0.7,-4.5 c -1.46,-0.95 -3.28,-1.43 -5.46,-1.43 z m 16.93,0 c -2.47,0 -4.74,0.55 -6.82,1.64 l 0.53,3.89 0.05,0.04 c 0.5,-0.47 1.31,-0.89 2.45,-1.25 0.52,-0.17 1.05,-0.3 1.59,-0.39 0.55,-0.11 1.11,-0.16 1.67,-0.16 0.58,0 1.12,0.05 1.62,0.16 1.53,0.31 2.34,1.41 2.43,3.29 -0.14,-0.02 -0.3,-0.03 -0.47,-0.03 -0.18,-0.02 -0.34,-0.03 -0.48,-0.04 l -0.7,-0.02 c -3.1,0 -5.56,0.61 -7.37,1.83 -1.66,1.13 -2.5,2.54 -2.5,4.23 0,1.89 0.68,3.34 2.05,4.33 0.66,0.5 1.48,0.87 2.44,1.13 0.97,0.25 2.12,0.37 3.47,0.37 1.35,0 2.86,-0.45 4.53,-1.36 0.41,0.67 0.95,1.19 1.62,1.54 l 3.19,-2.93 c -0.96,-0.49 -1.45,-1.42 -1.45,-2.78 v -6.37 c 0,-1.11 -0.17,-2.1 -0.51,-2.98 -1.06,-2.76 -3.51,-4.14 -7.34,-4.14 z m 45.63,0 c -2.86,0 -5.19,0.95 -6.99,2.85 -0.82,0.88 -1.46,1.92 -1.9,3.1 -0.44,1.18 -0.65,2.41 -0.65,3.7 0,2.68 0.77,4.87 2.3,6.57 1.7,1.87 4.03,2.8 7.01,2.8 2.89,0 5.21,-0.95 6.96,-2.85 1.66,-1.8 2.48,-4.06 2.48,-6.8 0,-2.74 -0.8,-4.96 -2.41,-6.68 -1.68,-1.79 -3.94,-2.69 -6.8,-2.69 z m 22.46,0 c -1.76,0 -3.42,0.64 -4.97,1.92 v -1.57 h -4.28 v 18.41 h 4.42 c -0.09,-0.47 -0.14,-1.22 -0.14,-2.26 v -10.05 c 1.05,-1.6 2.34,-2.4 3.89,-2.4 2.09,0 3.14,1.72 3.14,5.16 v 9.6 c 0.63,-0.04 1.14,-0.05 1.51,-0.05 h 1.24 c 0.43,0 1.12,0.04 2.07,0.12 l 0.04,-0.07 c -0.07,-0.09 -0.16,-0.2 -0.26,-0.32 -0.1,-0.11 -0.17,-0.37 -0.23,-0.77 -0.06,-0.4 -0.09,-1.59 -0.09,-3.58 v -7.01 c 0,-2.13 -0.58,-3.86 -1.73,-5.16 -1.15,-1.31 -2.69,-1.97 -4.61,-1.97 z m -115.13,0.28 c 0.04,0.1 0.11,0.32 0.21,0.67 0.1,0.34 0.16,1.68 0.16,4.03 v 7 c 0,2.17 0.51,3.88 1.55,5.12 1.08,1.28 2.57,1.92 4.47,1.92 1.77,0 3.41,-0.62 4.91,-1.86 v 1.6 h 4.51 c -0.09,-0.47 -0.14,-1.22 -0.14,-2.26 v -16.15 h -4.37 v 13.02 c -0.84,1.01 -1.96,1.51 -3.34,1.51 -0.47,0 -0.91,-0.06 -1.31,-0.17 -1.31,-0.39 -1.97,-1.79 -1.97,-4.21 v -10.2 c -0.63,0.03 -1.14,0.05 -1.53,0.05 h -1.46 c -0.59,0 -1.15,-0.02 -1.69,-0.07 z m -153.35,0.07 v 18.41 h 4.47 c -0.05,-0.31 -0.07,-0.97 -0.07,-1.98 v -16.43 z m 228.46,0 v 18.41 h 4.48 c -0.05,-0.31 -0.07,-0.97 -0.07,-1.98 v -16.43 z m -255.82,3.35 c 2.27,0 3.64,1.26 4.13,3.79 -0.31,0.02 -0.66,0.04 -1.04,0.05 l -1.45,0.05 c -0.57,0.01 -1.16,0.02 -1.76,0.02 h -1 c -0.4,0 -0.82,-0.01 -1.25,-0.02 h -1.31 c -0.41,-0.01 -0.75,-0.02 -1.04,-0.03 0.16,-0.57 0.37,-1.08 0.66,-1.55 0.92,-1.54 2.28,-2.31 4.06,-2.31 z m 65.91,0.07 c 1.17,0 2.09,0.3 2.76,0.91 0.67,0.62 1.01,1.42 1.01,2.42 0,0.98 -0.37,1.83 -1.11,2.53 -0.71,0.65 -1.54,0.97 -2.5,0.97 -1.27,0 -2.3,-0.35 -3.09,-1.05 -0.35,-0.32 -0.62,-0.68 -0.8,-1.08 -0.18,-0.4 -0.27,-0.81 -0.27,-1.25 0,-0.43 0.08,-0.86 0.25,-1.29 0.56,-1.44 1.81,-2.16 3.75,-2.16 z m 207.19,0.19 c 1.58,0 2.81,0.54 3.72,1.62 0.84,1.01 1.27,2.34 1.27,3.98 0,1.62 -0.42,2.94 -1.24,3.95 -0.84,1.04 -2,1.57 -3.47,1.57 -1.58,0 -2.86,-0.54 -3.84,-1.61 -0.45,-0.49 -0.81,-1.08 -1.05,-1.78 -0.25,-0.69 -0.37,-1.4 -0.37,-2.14 0,-1.52 0.41,-2.8 1.23,-3.86 0.9,-1.15 2.15,-1.73 3.75,-1.73 z m -104.16,0.18 c 0.96,0 1.86,0.17 2.68,0.51 v 9.76 c -0.82,0.37 -1.73,0.56 -2.71,0.56 -1.89,0 -3.35,-0.53 -4.36,-1.6 -0.93,-1 -1.4,-2.34 -1.4,-4.02 0,-1.54 0.51,-2.79 1.55,-3.75 0.49,-0.46 1.08,-0.82 1.76,-1.07 0.69,-0.26 1.52,-0.39 2.48,-0.39 z m -221.91,6.16 h 0.7 c 0.34,0 0.67,0.03 0.99,0.09 v 3.68 c 0,0.14 0,0.28 0.01,0.41 -1.04,0.57 -2.17,0.86 -3.38,0.86 -1.2,0 -2.1,-0.18 -2.71,-0.53 -0.32,-0.19 -0.55,-0.42 -0.69,-0.7 -0.13,-0.3 -0.19,-0.63 -0.19,-1.01 0,-0.37 0.1,-0.73 0.32,-1.07 0.7,-1.15 2.35,-1.73 4.95,-1.73 z m 153.22,0 h 0.71 c 0.34,0 0.67,0.03 0.98,0.09 v 3.68 c 0,0.14 0.01,0.28 0.02,0.41 -1.04,0.57 -2.17,0.86 -3.38,0.86 -1.2,0 -2.1,-0.18 -2.71,-0.53 -0.32,-0.19 -0.55,-0.42 -0.69,-0.7 -0.13,-0.3 -0.19,-0.63 -0.19,-1.01 0,-0.37 0.1,-0.73 0.31,-1.07 0.71,-1.15 2.36,-1.73 4.95,-1.73 z m 129.35,0 h 0.7 c 0.34,0 0.67,0.03 0.99,0.09 v 3.68 c 0,0.14 0.01,0.28 0.02,0.41 -1.05,0.57 -2.17,0.86 -3.38,0.86 -1.2,0 -2.11,-0.18 -2.72,-0.53 -0.31,-0.19 -0.54,-0.42 -0.68,-0.7 -0.13,-0.3 -0.2,-0.63 -0.2,-1.01 0,-0.37 0.11,-0.73 0.32,-1.07 0.7,-1.15 2.35,-1.73 4.95,-1.73 z m -166.56,10.25 0.91,0.16 c 2.57,0.38 4.39,0.9 5.45,1.57 0.94,0.59 1.4,1.36 1.4,2.32 0,2.02 -1.44,3.03 -4.33,3.03 -1.69,0 -3.07,-0.34 -4.14,-1.04 -0.48,-0.31 -0.85,-0.68 -1.12,-1.1 -0.27,-0.43 -0.41,-0.93 -0.43,-1.52 0,-0.58 0.19,-1.18 0.55,-1.83 0.36,-0.65 0.93,-1.18 1.71,-1.59 z" /></g></svg>