<?xml version="1.0" encoding="UTF-8" standalone="no"?>
<svg
   xmlns:dc="http://purl.org/dc/elements/1.1/"
   xmlns:cc="http://creativecommons.org/ns#"
   xmlns:rdf="http://www.w3.org/1999/02/22-rdf-syntax-ns#"
   xmlns:svg="http://www.w3.org/2000/svg"
   xmlns="http://www.w3.org/2000/svg"
   id="svg34"
   xml:space="preserve"
   viewBox="0 0 1024 1024"
   y="0px"
   x="0px"
   version="1.1"><metadata
     id="metadata40"><rdf:RDF><cc:Work
         rdf:about=""><dc:format>image/svg+xml</dc:format><dc:type
           rdf:resource="http://purl.org/dc/dcmitype/StillImage" /></cc:Work></rdf:RDF></metadata><defs
     id="defs38" /><style
     id="style2">
#c1 {
	transform: scale(0);
	opacity: 0;
	transform-origin: 50% 50%;
	animation: pulse 4s cubic-bezier(.5,.5,0,1) infinite;	
}

#c2 {
	transform: scale(0);
	opacity: 0;
	transform-origin: 50% 50%;
	animation: pulse 4s 0.75s cubic-bezier(.5,.5,0,1) infinite;
}

#c3 {
	transform: scale(0);
	opacity: 0;
	transform-origin: 50% 50%;
	animation: pulse 4s 1.5s cubic-bezier(.5,.5,0,1) infinite;
}

@keyframes pulse {
	
	12% {
		opacity: 0.3;
	}
	
	50% {
		transform: scale(1);
	}
	
	100% {
		transform: scale(1);
	}
	
}
</style><circle
     fill="none"
     stroke-width="10"
     stroke="#a77a74"
     r="500"
     cy="512"
     cx="512"
     id="c1" /><circle
     fill="none"
     stroke-width="10"
     stroke="#6a8b91"
     r="500"
     cy="512"
     cx="512"
     id="c2" /><circle
     fill="none"
     stroke-width="10"
     stroke="#2d9cae"
     r="500"
     cy="512"
     cx="512"
     id="c3" /><g
     transform="translate(0,128)"
     id="fade"><g
       style="stroke-width:0;stroke-miterlimit:2"
       transform="matrix(1.4451,0,0,1.4451,-227.9,-170.93)"
       stroke-miterlimit="2"
       id="logo-group"><path
         d="m 379.66,451.98 q -0.58501,-0.0731 -2.2547,-0.0731 h -0.975 v -16.26 q 0.78,0.0488 1.7184,0.0488 0.93843,0 1.3284,-0.0975 l 4.095,6.9591 3.9366,-6.9591 q 0.39,0.0975 1.4869,0.0975 1.0969,0 1.8769,-0.0488 v 16.258 h -0.975 q -1.6697,0 -2.2547,0.0731 v -10.92 l -3.9853,7.1297 -3.9975,-6.5569 z"
         style="font-variant-ligatures:none;fill:#2d9cae"
         id="path161310" /><path
         d="m 403.24,451.15 q -1.7306,0.93844 -3.1322,0.93844 -1.4016,0 -2.4009,-0.25594 -0.99938,-0.26812 -1.6941,-0.78 -1.4138,-1.0359 -1.4138,-2.9981 0,-1.755 1.7306,-2.925 1.8769,-1.2675 5.0944,-1.2675 l 0.4875,0.0122 q 0.14625,0.0122 0.32906,0.0244 0.18281,0 0.32906,0.0244 -0.0975,-1.95 -1.6819,-2.2791 -0.52407,-0.10969 -1.1212,-0.10969 -0.585,0 -1.1578,0.10969 -0.56062,0.0975 -1.0969,0.26812 -1.1822,0.37782 -1.6941,0.86532 l -0.0366,-0.0244 -0.36563,-2.6934 q 2.1572,-1.1334 4.7166,-1.1334 3.9731,0 5.0822,2.8641 0.35344,0.91406 0.35344,2.0597 v 4.4119 q 0,1.4138 0.99938,1.9256 l -2.2059,2.0231 q -0.69469,-0.36562 -1.1212,-1.0603 z m -0.65812,-5.0334 q -0.32906,-0.0609 -0.6825,-0.0609 h -0.4875 q -2.6934,0 -3.4247,1.1944 -0.21938,0.35344 -0.21938,0.74344 0,0.39 0.13406,0.69469 0.14625,0.2925 0.47531,0.4875 0.63376,0.36562 1.8769,0.36562 1.2553,0 2.34,-0.59718 -0.0122,-0.13407 -0.0122,-0.28032 z"
         style="font-variant-ligatures:none;fill:#2d9cae"
         id="path161312" /><path
         d="m 412.23,450.54 q 0,1.0481 0.0487,1.365 h -3.0347 v -12.736 h 2.9859 v 0.93844 q 1.0359,-1.1822 2.1694,-1.1822 1.1456,0 1.8038,0.28031 l -0.21937,3.2784 -0.0487,0.0366 q -0.42656,-0.75562 -1.7672,-0.75562 -0.51188,0 -1.0481,0.35344 -0.52407,0.34125 -0.88969,0.91406 z"
         style="font-variant-ligatures:none;fill:#2d9cae"
         id="path161314" /><path
         d="m 420.86,450.3 q 0,1.0481 0.0853,1.6088 h -3.0713 v -17.428 h 2.9859 v 10.676 l 5.5697,-5.9841 h 3.6197 l -4.8019,5.0578 2.7422,3.7416 q 0.88968,1.4138 1.3406,2.0719 l 0.80437,1.1334 q 0.36563,0.47531 0.60937,0.73125 h -1.9256 q -1.0725,0 -1.8403,0.18281 l -3.8025,-5.5575 -2.3156,2.4619 z"
         style="font-variant-ligatures:none;fill:#2d9cae"
         id="path161316" /><path
         d="m 431.61,445.65 q 0,-1.4259 0.4875,-2.6447 0.4875,-1.2188 1.3772,-2.1328 1.9012,-1.9378 4.9725,-1.9378 2.5959,0 4.1681,1.7184 1.5478,1.6575 1.5478,4.1681 0,0.96282 -0.14625,1.3162 -1.2188,0.34125 -4.9603,0.34125 h -4.29 q 0.31687,1.3041 1.4747,2.0353 1.1578,0.71906 3.0103,0.71906 1.9378,0 3.3272,-0.69469 0.36563,-0.18281 0.54844,-0.34125 -0.0243,0.51188 -0.0609,1.0481 l -0.13406,1.9012 q -0.92625,0.63375 -2.9981,0.8775 -0.60937,0.0731 -1.17,0.0731 -3.0956,0 -5.1188,-1.8038 -2.0353,-1.8159 -2.0353,-4.6434 z m 9.3112,-1.5356 q -0.49968,-2.6203 -2.8519,-2.6203 -1.8525,0 -2.8153,1.5966 -0.2925,0.4875 -0.45094,1.0725 0.2925,0.0122 0.71907,0.0244 h 0.90187 q 0.45093,0.0122 0.86531,0.0122 h 0.69469 q 0.62156,0 1.2188,-0.0122 l 0.99937,-0.0366 q 0.40219,-0.0122 0.71906,-0.0366 z"
         style="font-variant-ligatures:none;fill:#2d9cae"
         id="path161318" /><path
         d="m 452.45,449.23 q 1.5722,0 2.1572,-0.81656 h 0.0975 l 0.0366,2.8275 q -0.59718,0.59718 -2.2181,0.79218 -0.43875,0.0609 -1.0969,0.0609 -0.64593,0 -1.4138,-0.24375 -0.75562,-0.24375 -1.2919,-0.79219 -1.1091,-1.1334 -1.1091,-3.5466 v -5.5331 h -1.8403 q -0.0122,-0.35344 -0.0122,-0.71907 v -1.8769 q 0,-0.20719 0.0122,-0.20719 h 1.8403 v -3.4734 h 2.9859 v 3.4734 h 3.3516 v 2.8031 h -3.3516 v 4.9725 q 0,1.9134 1.0603,2.1816 0.34125,0.0975 0.79218,0.0975 z"
         style="font-variant-ligatures:none;fill:#2d9cae"
         id="path161320" /><path
         d="m 456.84,435.54 q 0.975,-1.5234 2.0353,-2.6812 l 2.6203,2.0597 q -0.52405,0.64594 -0.975,1.2675 0,0 -0.93843,1.3284 z m 3.2053,15.003 q 0,1.0481 0.0488,1.365 h -3.0956 v -12.736 h 3.0469 z"
         style="font-variant-ligatures:none;fill:#2d9cae"
         id="path161322" /><path
         d="m 466.67,450.35 q 0,1.0725 0.0975,1.56 h -3.0591 v -12.736 h 2.9616 v 1.0847 q 1.6088,-1.3284 3.4369,-1.3284 1.9988,0 3.1931,1.365 1.1944,1.3528 1.1944,3.5709 v 4.8506 q 0,2.0597 0.0609,2.4741 0.0609,0.41437 0.15844,0.53625 0.10968,0.12187 0.18281,0.21937 l -0.0243,0.0487 q -0.9872,-0.0853 -1.4382,-0.0853 h -0.85312 q -0.39,0 -1.0481,0.0366 v -6.6422 q 0,-3.5709 -2.1694,-3.5709 -1.6088,0 -2.6934,1.6575 z"
         style="font-variant-ligatures:none;fill:#2d9cae"
         id="path161324" /><path
         d="m 481.4,448.52 q -0.45094,0.59719 -0.45094,0.95063 0,0.34125 0.10969,0.53625 0.10969,0.18281 0.47531,0.35344 0.80438,0.37781 2.6447,0.67031 1.8403,0.28031 2.8762,0.70687 1.0481,0.42657 1.694,1.0481 1.2066,1.1822 1.2066,3.3516 0,2.1694 -1.5234,3.3272 -1.5234,1.17 -4.5216,1.17 -3.0225,0 -4.875,-1.3162 -1.8525,-1.3162 -1.9012,-3.4978 -0.0731,-2.535 1.9866,-3.6684 -0.56063,-0.46313 -0.75563,-1.0847 -0.1828,-0.63375 -0.1828,-1.4381 0,-1.3528 1.1822,-2.2912 -1.3772,-1.3041 -1.3772,-3.2419 0,-2.1694 1.56,-3.6319 1.6453,-1.5356 4.2656,-1.5356 1.3772,0 2.5838,0.51188 1.5844,-0.67032 2.3278,-1.17 0.74344,-0.51188 0.95062,-0.74344 l 0.0731,0.0122 q 0.10969,0.2925 0.25594,0.82875 l 0.21938,0.8775 q 0.2925,1.0847 0.35343,1.4869 -0.53625,0.585 -1.8891,0.82875 0.52406,1.0116 0.52406,2.145 0,1.1334 -0.39,2.0597 -0.39,0.91407 -1.1091,1.6088 -1.5966,1.4991 -4.0706,1.4991 -1.2066,0 -2.2425,-0.35344 z m -0.31687,-5.4844 q -0.17063,0.43875 -0.17063,0.88969 0,0.45093 0.18281,0.86531 0.195,0.41437 0.56063,0.74344 0.81656,0.73125 2.1328,0.73125 0.99937,0 1.7306,-0.67032 0.76781,-0.73125 0.76781,-1.755 0,-1.0359 -0.69469,-1.6697 -0.69469,-0.63375 -1.9134,-0.63375 -2.0109,0 -2.5959,1.4991 z m 2.9859,15.015 q 2.9981,0 2.9981,-2.0962 0,-0.99938 -0.975,-1.6088 -1.0969,-0.69469 -3.7659,-1.0847 l -0.63374,-0.10969 q -0.80438,0.42657 -1.1822,1.0969 -0.3778,0.67031 -0.3778,1.2675 0.0122,0.60937 0.29249,1.0481 0.28031,0.43875 0.78001,0.76782 1.109,0.71906 2.864,0.71906 z"
         style="font-variant-ligatures:none;fill:#2d9cae"
         id="path161326" /><path
         d="m 509.27,451.15 q -1.7306,0.93844 -3.1322,0.93844 -1.4016,0 -2.4009,-0.25594 -0.99938,-0.26812 -1.6941,-0.78 -1.4138,-1.0359 -1.4138,-2.9981 0,-1.755 1.7306,-2.925 1.8769,-1.2675 5.0944,-1.2675 l 0.4875,0.0122 q 0.14625,0.0122 0.32906,0.0244 0.18281,0 0.32906,0.0244 -0.0975,-1.95 -1.6819,-2.2791 -0.52407,-0.10969 -1.1212,-0.10969 -0.585,0 -1.1578,0.10969 -0.56062,0.0975 -1.0969,0.26812 -1.1822,0.37782 -1.6941,0.86532 l -0.0366,-0.0244 -0.36563,-2.6934 q 2.1572,-1.1334 4.7166,-1.1334 3.9731,0 5.0822,2.8641 0.35346,0.91406 0.35346,2.0597 v 4.4119 q 0,1.4138 0.99938,1.9256 l -2.206,2.0231 q -0.69468,-0.36563 -1.1212,-1.0603 z m -0.65812,-5.0334 q -0.32906,-0.0609 -0.6825,-0.0609 h -0.4875 q -2.6934,0 -3.4247,1.1944 -0.21938,0.35344 -0.21938,0.74344 0,0.39 0.13406,0.69469 0.14625,0.2925 0.47531,0.4875 0.63376,0.36562 1.8769,0.36562 1.2553,0 2.34,-0.59718 -0.0122,-0.13407 -0.0122,-0.28032 z"
         style="font-variant-ligatures:none;fill:#2d9cae"
         id="path161328" /><path
         d="m 519.68,452.09 q -3.4369,0 -5.1797,-1.2553 0.0243,-0.36563 0.0731,-0.82875 l 0.10968,-0.8775 q 0.0975,-0.86531 0.12188,-1.0725 0.0243,-0.21938 0.0366,-0.23156 0.0122,-0.0244 0.195,0.195 0.18281,0.20718 0.69469,0.51187 0.51187,0.30469 1.1822,0.53625 1.4503,0.49969 3.0225,0.49969 2.1084,0 2.1084,-1.4016 0,-0.45094 -0.40218,-0.67032 -0.71907,-0.36562 -2.1206,-0.54843 -1.3894,-0.195 -2.2791,-0.56063 -0.88968,-0.36562 -1.4503,-0.8775 -1.0359,-0.96281 -1.0359,-2.5228 0,-1.9012 1.4625,-2.9859 1.4503,-1.0725 4.0097,-1.0725 2.535,0 4.3266,1.4381 -0.0853,0.31687 -0.18281,0.60937 -0.28032,0.80438 -0.41438,1.1578 l -0.28031,0.71907 q -0.0243,0.0975 -0.0366,0.0975 -0.0243,0 -0.195,-0.25594 -0.76782,-0.88969 -2.3888,-1.17 -0.49969,-0.0975 -1.0238,-0.0975 -2.2181,0 -2.2181,1.3406 0,0.46313 0.46313,0.70688 0.86531,0.46312 2.3644,0.6825 1.5112,0.21937 2.2912,0.59719 0.78,0.36562 1.2553,0.88968 0.8775,0.95063 0.8775,2.5228 0,1.7184 -1.3772,2.7909 -1.4381,1.1334 -4.0097,1.1334 z"
         style="font-variant-ligatures:none;fill:#2d9cae"
         id="path161330" /><path
         d="m 544.66,448.98 q 0.75563,0 1.0481,-0.14625 l 0.0487,0.0122 -0.12188,3.0591 h -9.1284 v -16.295 q 0.32906,0.0244 0.73125,0.0366 l 0.85312,0.0244 q 0.85313,0.0244 1.8525,0.0244 2.7909,0 5.5209,-0.0975 -0.13406,1.0725 -0.13406,2.8641 0,0.195 0.0243,0.2925 l -0.0243,0.0366 q -0.63375,-0.18281 -1.8038,-0.18281 h -3.84 v 3.1078 h 2.8884 q 1.3406,0 1.6088,-0.0731 l 0.0366,3.0103 q -0.585,-0.0609 -1.5112,-0.0609 h -3.0225 v 4.3875 z"
         style="font-variant-ligatures:none;fill:#2d9cae"
         id="path161332" /><path
         d="m 557.47,451.23 q -1.5478,0.86531 -3.0956,0.86531 -1.5478,0 -2.7056,-0.4875 -1.1578,-0.4875 -1.9744,-1.3406 -1.6819,-1.755 -1.6819,-4.5581 0,-2.9006 1.95,-4.8262 1.9622,-1.95 5.0212,-1.95 0.93843,0 1.8403,0.24375 v -5.4234 h 2.9859 v 13.028 q 0,1.6209 0.14625,2.1206 0.15843,0.49968 0.34125,0.73125 0.195,0.23156 0.4875,0.43875 l -2.2912,2.0231 q -0.63375,-0.34125 -1.0238,-0.86531 z m -2.5228,-1.9378 q 1.0238,0 1.8769,-0.39 v -6.7519 q -0.85313,-0.35344 -1.8525,-0.35344 -0.99938,0 -1.7184,0.26813 -0.70688,0.26812 -1.2188,0.74344 -1.0725,0.99937 -1.0725,2.5959 0,1.7428 0.97499,2.7788 1.0481,1.1091 3.0103,1.1091 z"
         style="font-variant-ligatures:none;fill:#2d9cae"
         id="path161334" /><path
         d="m 570.94,450.8 q -1.56,1.2919 -3.4003,1.2919 -1.9744,0 -3.0956,-1.3284 -1.0725,-1.2919 -1.0725,-3.5466 v -4.8384 q 0,-2.4375 -0.10969,-2.7909 -0.0975,-0.36563 -0.14625,-0.46313 0.56062,0.0487 1.17,0.0487 h 1.0116 q 0.40218,0 1.0603,-0.0366 v 7.0566 q 0,2.5106 1.365,2.9128 0.41438,0.12187 0.90188,0.12187 1.4381,0 2.3156,-1.0481 v -9.0066 h 3.0225 v 11.176 q 0,1.0725 0.0975,1.56 h -3.12 z"
         style="font-variant-ligatures:none;fill:#2d9cae"
         id="path161336" /><path
         d="m 587.79,450.73 q -1.365,1.365 -4.2778,1.365 -2.8275,0 -4.6191,-1.7184 -1.8159,-1.7428 -1.8159,-4.6312 0,-2.9372 1.7916,-4.8262 1.9012,-1.9866 5.0822,-1.9866 2.2547,0 3.7781,0.98719 l -0.4875,3.12 -0.0853,-0.0122 q -0.585,-0.70688 -1.2309,-0.92625 -1.0481,-0.36563 -2.0962,-0.36563 -1.0481,0 -1.6453,0.26813 -0.59719,0.26812 -1.0238,0.74344 -0.85313,0.975 -0.85313,2.5838 0,2.8519 1.9744,3.7294 0.6825,0.2925 1.4381,0.2925 0.7678,0 1.3284,-0.13406 0.57281,-0.13406 1.0359,-0.36563 0.98718,-0.4875 1.3406,-1.1334 l 0.0853,0.0366 z"
         style="font-variant-ligatures:none;fill:#2d9cae"
         id="path161338" /><path
         d="m 598.78,451.15 q -1.7306,0.93844 -3.1322,0.93844 -1.4016,0 -2.4009,-0.25594 -0.99938,-0.26812 -1.6941,-0.78 -1.4138,-1.0359 -1.4138,-2.9981 0,-1.755 1.7306,-2.925 1.8769,-1.2675 5.0944,-1.2675 l 0.4875,0.0122 q 0.14625,0.0122 0.32906,0.0244 0.18281,0 0.32906,0.0244 -0.0975,-1.95 -1.6819,-2.2791 -0.52407,-0.10969 -1.1212,-0.10969 -0.585,0 -1.1578,0.10969 -0.56062,0.0975 -1.0969,0.26812 -1.1822,0.37782 -1.6941,0.86532 l -0.0366,-0.0244 -0.36563,-2.6934 q 2.1572,-1.1334 4.7166,-1.1334 3.9731,0 5.0822,2.8641 0.35344,0.91406 0.35344,2.0597 v 4.4119 q 0,1.4138 0.99938,1.9256 l -2.2059,2.0231 q -0.69469,-0.36562 -1.1212,-1.0603 z m -0.65812,-5.0334 q -0.32906,-0.0609 -0.6825,-0.0609 h -0.4875 q -2.6934,0 -3.4247,1.1944 -0.21937,0.35344 -0.21937,0.74344 0,0.39 0.13406,0.69469 0.14625,0.2925 0.47531,0.4875 0.63376,0.36562 1.8769,0.36562 1.2553,0 2.34,-0.59718 -0.0122,-0.13407 -0.0122,-0.28032 z"
         style="font-variant-ligatures:none;fill:#2d9cae"
         id="path161340" /><path
         d="m 610.55,449.23 q 1.5722,0 2.1572,-0.81656 h 0.0975 l 0.0366,2.8275 q -0.59718,0.59718 -2.2181,0.79218 -0.43875,0.0609 -1.0969,0.0609 -0.64593,0 -1.4138,-0.24375 -0.75562,-0.24375 -1.2919,-0.79219 -1.1091,-1.1334 -1.1091,-3.5466 v -5.5331 h -1.8403 q -0.0122,-0.35344 -0.0122,-0.71907 v -1.8769 q 0,-0.20719 0.0122,-0.20719 h 1.8403 v -3.4734 h 2.9859 v 3.4734 h 3.3516 v 2.8031 h -3.3516 v 4.9725 q 0,1.9134 1.0603,2.1816 0.34125,0.0975 0.79218,0.0975 z"
         style="font-variant-ligatures:none;fill:#2d9cae"
         id="path161342" /><path
         d="m 614.94,435.54 q 0.975,-1.5234 2.0353,-2.6812 l 2.6203,2.0597 q -0.52405,0.64594 -0.975,1.2675 0,0 -0.93843,1.3284 z m 3.2053,15.003 q 0,1.0481 0.0488,1.365 h -3.0956 v -12.736 h 3.0469 z"
         style="font-variant-ligatures:none;fill:#2d9cae"
         id="path161344" /><path
         d="m 620.64,445.61 q 0,-1.3406 0.45094,-2.5594 0.46312,-1.2309 1.3162,-2.145 1.8647,-1.9744 4.8384,-1.9744 2.9616,0 4.7044,1.8647 1.6697,1.7794 1.6697,4.6191 0,2.8397 -1.7184,4.7044 -1.8159,1.9744 -4.8141,1.9744 -3.0956,0 -4.8506,-1.9378 -1.5966,-1.7672 -1.5966,-4.5459 z m 2.9616,-0.0731 q 0,0.76781 0.25593,1.4869 0.25594,0.71906 0.73125,1.2309 1.0116,1.1091 2.6569,1.1091 1.5234,0 2.4009,-1.0847 0.85313,-1.0481 0.85313,-2.73 0,-1.7062 -0.8775,-2.7544 -0.93844,-1.1212 -2.5716,-1.1212 -1.6575,0 -2.5959,1.1944 -0.85312,1.0969 -0.85312,2.6691 z"
         style="font-variant-ligatures:none;fill:#2d9cae"
         id="path161346" /><path
         d="m 639.35,450.35 q 0,1.0725 0.0975,1.56 h -3.0591 v -12.736 h 2.9616 v 1.0847 q 1.6087,-1.3284 3.4369,-1.3284 1.9988,0 3.1931,1.365 1.1944,1.3528 1.1944,3.5709 v 4.8506 q 0,2.0597 0.0609,2.4741 0.0609,0.41437 0.15844,0.53625 0.10968,0.12187 0.18281,0.21937 l -0.0243,0.0487 q -0.98721,-0.0853 -1.4382,-0.0853 h -0.85312 q -0.39,0 -1.0481,0.0366 v -6.6422 q 0,-3.5709 -2.1694,-3.5709 -1.6088,0 -2.6934,1.6575 z"
         style="font-variant-ligatures:none;fill:#2d9cae"
         id="path161348" /><path
         d="m 334.85,411.19 13.968,-99.36 q 13.824,-1.44 38.592,-1.44 20.304,0 29.376,7.056 9.216,7.056 6.912,23.904 -1.296,10.08 -6.336,15.984 -5.04,5.904 -15.984,7.056 l -0.144,1.008 q 10.944,1.872 12.528,15.552 l 4.32,30.24 H 390.29 l -3.456,-30.384 q -0.28802,-4.32 -1.728,-5.616 -1.44,-1.44 -5.184,-1.44 H 366.53 l -5.328,37.44 z m 34.416,-57.168 h 12.96 q 7.344,0 10.368,-2.592 3.024,-2.592 4.176,-10.368 0.864,-6.336 -1.296,-8.64 -2.016,-2.304 -8.496,-2.304 l -14.4,0.144 z"
         style="font-variant-ligatures:none;fill:#e46957"
         id="path161351" /><path
         d="m 450.52,307.36 h 10.368 q 8.352,0 7.488,8.208 l -1.008,7.488 q -1.008,7.2 -8.496,7.2 h -10.656 q -8.208,0 -7.2,-8.208 l 1.008,-7.488 q 0.57602,-7.2 8.496,-7.2 z m 4.176,103.82 h -26.064 l 9.936,-71.568 h 26.064 z"
         style="font-variant-ligatures:none;fill:#e46957"
         id="path161353" /><path
         d="m 510.86,356.04 -4.32,30.816 q -0.576,3.456 0.432,4.608 1.008,1.008 4.752,1.008 h 8.928 l 1.296,17.424 q -8.352,3.168 -22.032,3.168 -10.656,0 -16.272,-5.616 -5.472,-5.616 -4.032,-15.12 l 5.328,-36.288 h -12.528 l 2.016,-15.696 12.96,-0.72 2.88,-19.296 h 25.776 l -2.736,19.296 h 18.288 l -2.304,16.416 z"
         style="font-variant-ligatures:none;fill:#e46957"
         id="path161355" /><path
         d="m 602.55,357.19 -40.32,36.432 h 35.568 l -2.304,17.568 h -66.528 l 2.304,-17.568 h -0.144 l 40.32,-36.432 h -34.128 l 2.304,-17.568 h 64.944 l -2.16,17.568 z"
         style="font-variant-ligatures:none;fill:#e46957"
         id="path161357" /><path
         d="m 679.36,411.19 h -20.304 v -13.536 q -10.08,14.4 -28.512,15.264 -14.256,0.72 -18.864,-9.072 -4.608,-9.792 -1.584,-30.096 1.584,-9.936 4.464,-16.704 2.88,-6.768 6.192,-10.512 3.456,-3.888 9.072,-5.904 5.76,-2.016 10.8,-2.448 5.184,-0.576 13.392,-0.576 7.488,0 18.72,1.44 11.232,1.44 16.416,3.024 z m -18.144,-55.584 -8.496,-0.144 q -7.632,0 -11.088,3.312 -3.312,3.168 -4.896,14.544 -1.872,12.384 -1.152,15.84 0.72,3.456 5.184,3.312 7.776,-0.432 16.992,-12.528 z"
         style="font-variant-ligatures:none;fill:#e46957"
         id="path161359" /></g></g></svg>